<?xml version="1.0" standalone="no"?>
<!DOCTYPE svg PUBLIC "-//W3C//DTD SVG 1.1//EN" "http://www.w3.org/Graphics/SVG/1.1/DTD/svg11.dtd" >
<svg>
<metadata>
Created by FontForge 20090622 at Wed Jan 25 20:17:56 2017
 By deploy user
Cirilicna Slova Dodao Nikola Kovanovic.
</metadata>
<defs>
<font id="NK767-Regular" horiz-adv-x="186" >
  <font-face 
    font-family="NK767 Alt"
    font-weight="400"
    font-stretch="normal"
    units-per-em="1000"
    panose-1="2 0 5 0 2 0 0 2 0 4"
    ascent="800"
    descent="-200"
    x-height="507"
    cap-height="712"
    bbox="-165 -250 1000 937"
    underline-thickness="50"
    underline-position="-50"
    unicode-range="U+001D-U+FB02"
  />
<missing-glyph 
 />
    <glyph glyph-name=".notdef" 
 />
    <glyph glyph-name=".null" horiz-adv-x="0" 
 />
    <glyph glyph-name=".null" horiz-adv-x="0" 
 />
    <glyph glyph-name="nonmarkingreturn" 
 />
    <glyph glyph-name="space" unicode=" " 
 />
    <glyph glyph-name="space" unicode="&#xa0;" 
 />
    <glyph glyph-name="exclam" unicode="!" horiz-adv-x="240" 
d="M69 102h102v-102h-102v102zM56 712h128l-39 -536h-50z" />
    <glyph glyph-name="quotedbl" unicode="&#x22;" horiz-adv-x="278" 
d="M165 712h80v-176h-80v176zM33 712h80v-176h-80v176z" />
    <glyph glyph-name="numbersign" unicode="#" horiz-adv-x="372" 
d="M239 437h-84l-22 -162h84zM209 215h-84l-29 -215h-68l29 215h-51v60h59l22 162h-50v60h58l29 215h68l-29 -215h84l29 215h68l-29 -215h51v-60h-59l-22 -162h50v-60h-58l-29 -215h-68z" />
    <glyph glyph-name="dollar" unicode="$" horiz-adv-x="372" 
d="M161 -6q-33 4 -60.5 18t-47.5 36t-31 51t-11 62v40h102v-36q0 -23 11 -43t37 -26v230l-34 14q-66 27 -88.5 71.5t-22.5 111.5q0 76 36 130.5t109 64.5v75h51v-75q34 -4 61.5 -19t47 -37.5t30 -49.5t10.5 -55v-50h-102v23q0 32 -10.5 55t-36.5 31v-201l42 -17
q34 -13 55 -30.5t32.5 -41t15.5 -54t4 -69.5q0 -43 -7.5 -79.5t-25 -64t-46 -44.5t-70.5 -21v-84h-51v84zM212 96q32 8 39.5 35t7.5 71q0 25 -1.5 42t-7 28t-14.5 18.5t-24 13.5v-208zM161 616q-26 -10 -34.5 -35t-8.5 -57q0 -36 7 -54.5t36 -32.5v179z" />
    <glyph glyph-name="percent" unicode="%" horiz-adv-x="352" 
d="M265 712h66l-244 -712h-66zM258 -6q-39 0 -62 21t-23 55v65q0 38 23 60t62 22t62 -22t23 -60v-65q0 -34 -23 -55t-62 -21zM233 80q0 -11 7.5 -18.5t17.5 -7.5t17.5 7.5t7.5 18.5v51q0 11 -7.5 18.5t-17.5 7.5t-17.5 -7.5t-7.5 -18.5v-51zM94 495q-39 0 -62 21t-23 55v65
q0 38 23 60t62 22t62 -22t23 -60v-65q0 -34 -23 -55t-62 -21zM94 555q10 0 17.5 7.5t7.5 18.5v51q0 11 -7.5 18.5t-17.5 7.5t-17.5 -7.5t-7.5 -18.5v-51q0 -11 7.5 -18.5t17.5 -7.5z" />
    <glyph glyph-name="ampersand" unicode="&#x26;" horiz-adv-x="481" 
d="M162 506q0 -23 11 -49.5t28 -53.5l20 20.5t20 25.5t15 30.5t6 35.5t-13 35t-36 16t-37 -18.5t-14 -41.5zM126 164q0 -37 21.5 -63.5t54.5 -26.5q23 0 44 14.5t32 28.5l-98 156q-23 -23 -38.5 -49.5t-15.5 -59.5zM319 54q-30 -30 -62.5 -45t-73.5 -15q-30 0 -57 12
t-47 33.5t-31.5 52t-11.5 67.5q0 59 28 103t70 82q-27 38 -44.5 78.5t-17.5 85.5q0 28 9 53.5t26 44t43 29.5t61 11q33 0 58 -10.5t42 -28t26 -41t9 -49.5q0 -50 -31 -95.5t-73 -83.5q19 -29 43.5 -70t50.5 -79l55 75l63 -44l-76 -98l77 -122h-102z" />
    <glyph glyph-name="quotesingle" unicode="'" 
d="M53 712h80v-176h-80v176z" />
    <glyph glyph-name="parenleft" unicode="(" horiz-adv-x="222" 
d="M203 712q-29 -103 -40 -213.5t-11 -220.5q0 -102 13.5 -196t37.5 -182h-34q-30 43 -52.5 94t-37 104t-22 106.5t-7.5 101.5q0 51 8 105.5t23.5 107.5t37.5 102t50 91h34z" />
    <glyph glyph-name="parenright" unicode=")" horiz-adv-x="222" 
d="M19 -100q29 103 40 213.5t11 220.5q0 102 -13.5 196t-37.5 182h34q30 -44 52.5 -94.5t37 -103.5t22 -106.5t7.5 -101.5q0 -51 -8 -105.5t-23.5 -107.5t-37.5 -102t-50 -91h-34z" />
    <glyph glyph-name="asterisk" unicode="*" horiz-adv-x="370" 
d="M59 656l98 -60l-4 116h64l-4 -116l98 60l28 -52l-100 -56l100 -55l-28 -53l-98 60l4 -116h-64l4 116l-98 -60l-28 53l100 55l-100 56z" />
    <glyph glyph-name="plus" unicode="+" horiz-adv-x="600" 
d="M260 506h80v-213h213v-80h-213v-213h-80v213h-213v80h213v213z" />
    <glyph glyph-name="comma" unicode="," 
d="M42 102h102v-102l-102 -74v176z" />
    <glyph glyph-name="hyphen" unicode="-" horiz-adv-x="389" 
d="M44 328h301v-102h-301v102z" />
    <glyph glyph-name="hyphen" unicode="&#xad;" horiz-adv-x="389" 
d="M44 328h301v-102h-301v102z" />
    <glyph glyph-name="period" unicode="." 
d="M42 102h102v-102h-102v102z" />
    <glyph glyph-name="slash" unicode="/" horiz-adv-x="222" 
d="M137 718h80l-132 -724h-80z" />
    <glyph glyph-name="zero" unicode="0" horiz-adv-x="372" 
d="M34 148v423q0 46 20.5 81.5t55.5 54t76 18.5q32 0 59 -10.5t48 -30.5t33 -49t12 -64v-423q0 -46 -21 -81t-55.5 -54t-75.5 -19t-75.5 19t-55.5 54t-21 81zM136 571v-423q0 -21 14 -36t36 -15t36 15t14 36v423q0 13 -6 25t-18 19t-26 7t-26 -7t-18 -19t-6 -25z" />
    <glyph glyph-name="one" unicode="1" horiz-adv-x="372" 
d="M155 0v610l-102 -76v109l102 76h102v-719h-102z" />
    <glyph glyph-name="two" unicode="2" horiz-adv-x="372" 
d="M34 0v97l184 350q12 24 15 42.5t3 52.5q0 39 -8.5 59.5t-41.5 20.5q-23 0 -36.5 -13.5t-13.5 -37.5v-59h-102v57q0 41 20.5 77.5t55.5 57.5t77 21q51 0 84.5 -24.5t50 -65.5t16.5 -91q0 -54 -5.5 -79.5t-28.5 -69.5l-150 -292h184v-103h-304z" />
    <glyph glyph-name="three" unicode="3" horiz-adv-x="372" 
d="M155 325v91q33 0 49.5 4.5t24 18.5t7.5 40v93q0 22 -14 36t-36 14q-24 0 -37 -16t-13 -34v-59h-102v60q0 41 21 76.5t56 55.5t77 20q39 0 67.5 -15.5t43.5 -34.5q15 -18 23.5 -36t12 -46t3.5 -71q0 -54 -4 -78t-16.5 -39t-42.5 -33q30 -19 43.5 -37.5t16.5 -43.5t3 -84
q0 -69 -5.5 -96.5t-21.5 -50.5q-43 -66 -126 -66q-36 0 -70.5 15.5t-57.5 50t-23 87.5v59h102v-53q0 -25 14 -40.5t36 -15.5q23 0 36.5 15.5t13.5 42.5v103q0 29 -6.5 42.5t-23.5 19t-51 5.5z" />
    <glyph glyph-name="four" unicode="4" horiz-adv-x="372" 
d="M212 0v107h-203v97l147 515h108l-153 -515h101v205h102v-205h49v-97h-49v-107h-102z" />
    <glyph glyph-name="five" unicode="5" horiz-adv-x="372" 
d="M338 719v-97h-202v-194q36 34 85 34q53 0 85 -33t32 -95v-186q0 -46 -21 -81t-55.5 -54t-75.5 -19t-75.5 19t-55.5 54t-21 81v31h102v-26q0 -27 14.5 -41.5t37.5 -14.5q22 0 35 14t13 39v169q0 22 -13.5 37t-34.5 15q-23 0 -33 -11t-19 -29h-90v388h292z" />
    <glyph glyph-name="six" unicode="6" horiz-adv-x="372" 
d="M301 719l-116 -302l2 -2q12 9 43 9q26 0 50 -13.5t36 -32.5q9 -16 13.5 -32.5t6.5 -48.5t2 -87q0 -69 -4.5 -96t-18.5 -50q-19 -34 -53 -52t-76 -18q-41 0 -74 18t-54 52q-16 25 -20 51t-4 95q0 61 4 88t15 60l134 361h114zM236 148v134q0 23 -15 37t-35 14t-35 -14
t-15 -37v-134q0 -22 15 -36.5t35 -14.5t35 14.5t15 36.5z" />
    <glyph glyph-name="seven" unicode="7" horiz-adv-x="372" 
d="M57 0l179 622h-112v-83h-90v180h304v-103l-173 -616h-108z" />
    <glyph glyph-name="eight" unicode="8" horiz-adv-x="372" 
d="M236 467v105q0 21 -15 35.5t-35 14.5t-35 -14.5t-15 -35.5v-105q0 -21 15 -36t35 -15t35 15t15 36zM34 531q0 56 8 83.5t29 55.5q20 26 50 40.5t65 14.5t65 -14.5t50 -40.5q21 -28 29 -55t8 -84q0 -69 -8.5 -97.5t-42.5 -55.5q25 -20 35.5 -39t13 -46.5t2.5 -91.5
q0 -65 -5.5 -92t-22.5 -51q-11 -17 -29 -32t-42.5 -23.5t-52.5 -8.5q-42 0 -73.5 17.5t-50.5 46.5q-11 17 -17 32.5t-8.5 43t-2.5 67.5q0 64 3 91.5t13 46.5t35 39q-25 20 -35 38.5t-13 41t-3 73.5zM236 147v142q0 21 -15 35.5t-35 14.5t-35 -14.5t-15 -35.5v-142
q0 -21 15 -35.5t35 -14.5t35 14.5t15 35.5z" />
    <glyph glyph-name="nine" unicode="9" horiz-adv-x="372" 
d="M71 0l116 302l-2 2q-12 -9 -43 -9q-26 0 -49 12.5t-37 33.5q-6 10 -10.5 23t-7 33t-3.5 49.5t-1 62.5q0 70 4.5 95.5t18.5 50.5q20 34 53.5 52t75.5 18q27 0 51 -8t44 -24.5t33 -37.5q15 -23 19.5 -49.5t4.5 -96.5q0 -66 -4 -92t-15 -55l-134 -362h-114zM136 571v-134
q0 -23 15 -37t35 -14t35 14t15 37v134q0 23 -14.5 37t-35.5 14q-20 0 -35 -14t-15 -37z" />
    <glyph glyph-name="colon" unicode=":" 
d="M42 329h102v-102h-102v102zM42 102h102v-102h-102v102z" />
    <glyph glyph-name="semicolon" unicode=";" 
d="M42 329h102v-102h-102v102zM42 102h102v-102l-102 -74v176z" />
    <glyph glyph-name="semicolon" unicode="&#x37e;" 
d="M42 329h102v-102h-102v102zM42 102h102v-102l-102 -74v176z" />
    <glyph glyph-name="less" unicode="&#x3c;" horiz-adv-x="600" 
d="M553 434l-397 -181l397 -181v-80l-506 231v60l506 231v-80z" />
    <glyph glyph-name="equal" unicode="=" horiz-adv-x="600" 
d="M47 193h506v-80h-506v80zM47 393h506v-80h-506v80z" />
    <glyph glyph-name="greater" unicode="&#x3e;" horiz-adv-x="600" 
d="M47 72l397 181l-397 181v80l506 -231v-60l-506 -231v80z" />
    <glyph glyph-name="question" unicode="?" horiz-adv-x="370" 
d="M134 102h102v-102h-102v102zM32 566q0 31 12 59t33 48.5t49 32.5t60 12q37 0 67.5 -15t50.5 -42q10 -14 16.5 -26t10.5 -25.5t5.5 -30.5t1.5 -40q0 -26 -0.5 -43.5t-2.5 -30.5t-5 -22.5t-8 -17.5l-69 -118q-7 -12 -12 -24.5t-5 -26.5v-80h-102v93q0 22 7 42t18 39l64 104
q8 13 10.5 28t2.5 30v53q0 21 -14.5 36t-35.5 15q-18 0 -35 -13t-17 -38v-58h-102v59z" />
    <glyph glyph-name="at" unicode="@" horiz-adv-x="800" 
d="M552 273q-5 -14 -7.5 -26t-2.5 -19q0 -13 5 -21t18 -8q24 0 48 20t43.5 51.5t32 69.5t12.5 74q0 52 -22 96t-59 75.5t-85.5 49t-101.5 17.5q-63 0 -118 -25t-96 -66t-64.5 -95.5t-23.5 -112.5q0 -61 23.5 -114.5t65 -93t97.5 -62.5t121 -23q36 0 72 8.5t68 22.5
t58.5 33.5t44.5 40.5h77q-24 -40 -59.5 -72t-78 -54t-91 -33.5t-99.5 -11.5q-78 0 -146.5 27.5t-119.5 76t-80.5 115.5t-29.5 145q0 75 30 140.5t81.5 114.5t120.5 77t146 28q70 0 133 -22t110.5 -62t75 -94.5t27.5 -120.5q0 -63 -23.5 -114.5t-58.5 -88t-74.5 -57
t-71.5 -20.5q-34 0 -54 15.5t-24 47.5h-2q-11 -12 -22.5 -23t-26 -20t-32.5 -14.5t-41 -5.5q-32 0 -58.5 12t-45.5 33t-29 48.5t-10 58.5q0 49 17 98t47.5 88t73.5 63.5t96 24.5q35 0 67.5 -18.5t47.5 -59.5h2l20 61h63zM513 410q0 35 -19 59t-55 24q-33 0 -61 -18.5
t-48.5 -47.5t-32.5 -63.5t-12 -65.5q0 -42 22.5 -64.5t60.5 -22.5q28 0 54.5 20t46.5 49.5t32 64.5t12 65z" />
    <glyph glyph-name="A" unicode="A" horiz-adv-x="407" 
d="M161 712h85l159 -712h-102l-30 153h-139l-30 -153h-102zM204 507h-2l-50 -258h102z" />
    <glyph glyph-name="B" unicode="B" horiz-adv-x="426" 
d="M150 420h46q51 0 68.5 25.5t17.5 74.5q0 48 -19.5 72t-70.5 24h-42v-196zM150 102h44q31 0 48.5 9t26.5 25t11 38t2 48q0 27 -3 47t-12.5 33.5t-26.5 20.5t-45 7h-45v-228zM48 712h149q49 0 83.5 -15t56.5 -40t31.5 -57.5t9.5 -67.5v-26q0 -29 -4.5 -49t-13.5 -35
t-22 -26.5t-30 -21.5q36 -17 53 -50.5t17 -89.5v-40q0 -94 -45.5 -144t-145.5 -50h-139v712z" />
    <glyph glyph-name="C" unicode="C" horiz-adv-x="407" 
d="M372 159q0 -33 -12.5 -63t-34.5 -52.5t-51.5 -36t-63.5 -13.5q-29 0 -59 8t-54 27.5t-39.5 51.5t-15.5 81v392q0 35 12 65t34 52t52.5 34.5t67.5 12.5q35 0 65 -12.5t52 -35t34.5 -54t12.5 -68.5v-40h-102v34q0 30 -17 52t-46 22q-38 0 -50.5 -23.5t-12.5 -59.5v-364
q0 -31 13.5 -52t48.5 -21q10 0 21.5 3.5t21 11.5t15.5 22t6 35v35h102v-44z" />
    <glyph glyph-name="D" unicode="D" horiz-adv-x="426" 
d="M150 96h47q43 0 61 21.5t18 67.5v343q0 42 -17 65t-62 23h-47v-520zM48 712h151q87 0 133 -48.5t46 -135.5v-333q0 -100 -48.5 -147.5t-139.5 -47.5h-142v712z" />
    <glyph glyph-name="E" unicode="E" horiz-adv-x="392" 
d="M48 712h304v-96h-202v-209h176v-96h-176v-209h202v-102h-304v712z" />
    <glyph glyph-name="F" unicode="F" horiz-adv-x="370" 
d="M48 712h304v-96h-202v-216h176v-96h-176v-304h-102v712z" />
    <glyph glyph-name="G" unicode="G" horiz-adv-x="426" 
d="M42 544q0 43 15 76t39.5 54.5t55 32.5t61.5 11t61.5 -11t55 -32.5t39.5 -54.5t15 -76v-36h-102v36q0 37 -20.5 54.5t-48.5 17.5t-48.5 -17.5t-20.5 -54.5v-376q0 -37 20.5 -54.5t48.5 -17.5t48.5 17.5t20.5 54.5v134h-81v90h183v-224q0 -44 -15 -76.5t-39.5 -54
t-55 -32.5t-61.5 -11t-61.5 11t-55 32.5t-39.5 54t-15 76.5v376z" />
    <glyph glyph-name="H" unicode="H" horiz-adv-x="426" 
d="M48 712h102v-305h126v305h102v-712h-102v317h-126v-317h-102v712z" />
    <glyph glyph-name="I" unicode="I" horiz-adv-x="204" 
d="M51 712h102v-712h-102v712z" />
    <glyph glyph-name="J" unicode="J" horiz-adv-x="333" 
d="M285 168q0 -35 -12 -66.5t-34.5 -55.5t-54.5 -38t-73 -14q-49 0 -81.5 21.5t-51.5 42.5l80 64q11 -11 25.5 -18.5t30.5 -7.5q9 0 21 3.5t22.5 13t18 26t7.5 43.5v530h102v-544z" />
    <glyph glyph-name="K" unicode="K" horiz-adv-x="426" 
d="M48 712h102v-325h2l149 325h102l-139 -285l165 -427h-108l-116 316l-55 -103v-213h-102v712z" />
    <glyph glyph-name="L" unicode="L" horiz-adv-x="370" 
d="M48 712h102v-610h202v-102h-304v712z" />
    <glyph glyph-name="M" unicode="M" horiz-adv-x="556" 
d="M48 712h98l131 -377h2l130 377h99v-712h-102v433h-2l-101 -306h-51l-100 306h-2v-433h-102v712z" />
    <glyph glyph-name="N" unicode="N" horiz-adv-x="444" 
d="M44 712h98l154 -429h2v429h102v-712h-96l-156 428h-2v-428h-102v712z" />
    <glyph glyph-name="O" unicode="O" horiz-adv-x="426" 
d="M144 168q0 -37 20.5 -54.5t48.5 -17.5t48.5 17.5t20.5 54.5v376q0 37 -20.5 54.5t-48.5 17.5t-48.5 -17.5t-20.5 -54.5v-376zM42 544q0 43 15 76t39.5 54.5t55 32.5t61.5 11t61.5 -11t55 -32.5t39.5 -54.5t15 -76v-376q0 -44 -15 -76.5t-39.5 -54t-55 -32.5t-61.5 -11
t-61.5 11t-55 32.5t-39.5 54t-15 76.5v376z" />
    <glyph glyph-name="P" unicode="P" horiz-adv-x="407" 
d="M150 374h49q31 0 48 9t25 24.5t9.5 37.5t1.5 49q0 25 -1.5 47.5t-9 39t-23.5 26t-46 9.5h-53v-242zM48 712h153q42 0 74 -11t58 -39t36 -65.5t10 -101.5q0 -47 -5.5 -80.5t-23.5 -62.5q-21 -35 -56 -54.5t-92 -19.5h-52v-278h-102v712z" />
    <glyph glyph-name="Q" unicode="Q" horiz-adv-x="426" 
d="M42 544q0 43 15 76t39.5 54.5t55 32.5t61.5 11t61.5 -11t55 -32.5t39.5 -54.5t15 -76v-376q0 -42 -15 -73l63 -51l-52 -62l-60 49q-23 -19 -50.5 -28t-56.5 -9q-31 0 -61.5 11t-55 32.5t-39.5 54t-15 76.5v376zM144 168q0 -37 20.5 -54.5t48.5 -17.5q13 0 22 4l-46 37
l52 62l41 -33v2v376q0 37 -20.5 54.5t-48.5 17.5t-48.5 -17.5t-20.5 -54.5v-376z" />
    <glyph glyph-name="R" unicode="R" horiz-adv-x="426" 
d="M48 712h164q180 0 180 -209q0 -62 -19.5 -106.5t-68.5 -71.5l110 -325h-108l-95 304h-61v-304h-102v712zM150 394h58q27 0 43 7.5t24.5 21.5t11.5 34.5t3 47.5t-3 47.5t-12.5 35t-26.5 21.5t-45 7h-53v-222z" />
    <glyph glyph-name="S" unicode="S" horiz-adv-x="406" 
d="M378 507h-102v23q0 35 -16.5 60.5t-55.5 25.5q-21 0 -34.5 -8t-21 -20.5t-10.5 -29t-3 -34.5q0 -21 1.5 -35.5t7.5 -25t17.5 -18.5t31.5 -16l78 -31q34 -13 55 -30.5t32.5 -41t15.5 -54t4 -69.5q0 -45 -9 -83.5t-29.5 -66t-54.5 -43.5t-83 -16q-37 0 -69 13t-55 35.5
t-36.5 53.5t-13.5 67v38h102v-32q0 -28 16.5 -50.5t55.5 -22.5q26 0 40.5 7.5t22 21t9.5 33.5t2 44q0 28 -2 46t-8.5 29t-18 18t-30.5 15l-73 30q-66 27 -88.5 71.5t-22.5 111.5q0 40 11 76t32.5 62t54.5 41.5t77 15.5q38 0 69.5 -14t54 -37t34.5 -51.5t12 -58.5v-50z" />
    <glyph glyph-name="T" unicode="T" horiz-adv-x="332" 
d="M115 616h-118v96h338v-96h-118v-616h-102v616z" />
    <glyph glyph-name="U" unicode="U" horiz-adv-x="426" 
d="M378 160q0 -35 -13 -65t-35.5 -52.5t-52.5 -35.5t-64 -13t-64 13t-52.5 35.5t-35.5 52.5t-13 65v552h102v-542q0 -38 18 -56t45 -18t45 18t18 56v542h102v-552z" />
    <glyph glyph-name="V" unicode="V" horiz-adv-x="407" 
d="M248 0h-90l-145 712h108l81 -497h2l82 497h108z" />
    <glyph glyph-name="W" unicode="W" horiz-adv-x="593" 
d="M471 0h-96l-78 462h-2l-77 -462h-96l-106 712h108l51 -452h2l80 452h78l83 -463h2l49 463h108z" />
    <glyph glyph-name="X" unicode="X" horiz-adv-x="389" 
d="M142 373l-133 339h108l77 -211l78 211h108l-136 -339l147 -373h-108l-89 240l-88 -240h-108z" />
    <glyph glyph-name="Y" unicode="Y" horiz-adv-x="388" 
d="M143 301l-140 411h108l82 -283h2l82 283h108l-140 -411v-301h-102v301z" />
    <glyph glyph-name="Z" unicode="Z" horiz-adv-x="333" 
d="M15 90l192 526h-182v96h293v-81l-196 -535h196v-96h-303v90z" />
    <glyph glyph-name="bracketleft" unicode="[" horiz-adv-x="222" 
d="M214 652h-66v-692h66v-60h-156v812h156v-60z" />
    <glyph glyph-name="backslash" unicode="\" horiz-adv-x="222" 
d="M217 -6h-80l-132 724h80z" />
    <glyph glyph-name="bracketright" unicode="]" horiz-adv-x="222" 
d="M8 -40h66v692h-66v60h156v-812h-156v60z" />
    <glyph glyph-name="asciicircum" unicode="^" horiz-adv-x="600" 
d="M267 712h66l217 -429h-80l-170 339l-170 -339h-80z" />
    <glyph glyph-name="underscore" unicode="_" horiz-adv-x="500" 
d="M0 -75h500v-50h-500v50z" />
    <glyph glyph-name="grave" unicode="`" 
d="M158 574h-66l-132 141h108z" />
    <glyph glyph-name="a" unicode="a" horiz-adv-x="381" 
d="M239 218q-17 3 -28 3q-33 0 -56.5 -15.5t-23.5 -56.5q0 -29 14 -47t39 -18q26 0 40.5 17t14.5 48v69zM239 52h-2q-20 -28 -40.5 -43t-57.5 -15q-18 0 -37 5.5t-35.5 20t-27 41t-10.5 68.5q0 43 7 75.5t25.5 54t49.5 32t79 10.5q11 0 22 -1t27 -2v53q0 26 -11 43t-40 17
q-20 0 -36.5 -13t-21.5 -38h-99q5 69 46 110q20 20 48 31.5t63 11.5q32 0 60 -10t48.5 -30t32.5 -50t12 -70v-353h-102v52z" />
    <glyph glyph-name="b" unicode="b" horiz-adv-x="389" 
d="M245 351q0 24 -10.5 42t-39.5 18q-22 0 -36.5 -15.5t-14.5 -39.5v-197q0 -28 14 -45.5t37 -17.5q26 0 38 19t12 50v186zM42 712h102v-251h2q17 25 40.5 38.5t53.5 13.5q37 0 57.5 -13t33.5 -33q10 -16 13 -42t3 -81v-193q0 -42 -4 -67t-13 -42q-26 -48 -89 -48
q-38 0 -58 15t-39 37v-46h-102v712z" />
    <glyph glyph-name="c" unicode="c" horiz-adv-x="392" 
d="M150 146q0 -24 13.5 -37t36.5 -13q29 0 38.5 17t11.5 34h102q0 -32 -10.5 -60t-30.5 -48q-20 -21 -48 -33t-63 -12q-47 0 -81 20t-52 53q-11 20 -15 46t-4 57v167q0 31 4 57t15 46q18 33 52 53t81 20q35 0 63.5 -12t48 -33.5t30 -51.5t10.5 -65h-102q0 31 -13.5 45.5
t-36.5 14.5t-36.5 -14.5t-13.5 -43.5v-207z" />
    <glyph glyph-name="d" unicode="d" horiz-adv-x="389" 
d="M245 46l-19 -20.5t-20 -16.5t-25 -11t-33 -4q-63 0 -89 48q-9 17 -13 42t-4 67v193q0 55 3 81t13 42q13 20 33.5 33t57.5 13q30 0 53.5 -13.5t40.5 -38.5h2v251h102v-712h-102v46zM144 165q0 -31 12 -50t38 -19q23 0 37 17.5t14 45.5v197q0 24 -14.5 39.5t-36.5 15.5
q-29 0 -39.5 -18t-10.5 -42v-186z" />
    <glyph glyph-name="e" unicode="e" horiz-adv-x="370" 
d="M135 295h100v58q0 29 -13.5 43.5t-36.5 14.5t-36.5 -14.5t-13.5 -43.5v-58zM135 215v-69q0 -24 13.5 -37t36.5 -13q29 0 38.5 17t11.5 34h102q0 -32 -10.5 -60t-30.5 -48q-20 -21 -48 -33t-63 -12q-47 0 -81 20t-52 53q-11 20 -15 46t-4 57v167q0 31 4 57t15 46
q18 33 52 53t81 20q35 0 63.5 -12t48 -33.5t30 -50.5t10.5 -62v-140h-202z" />
    <glyph glyph-name="f" unicode="f" horiz-adv-x="222" 
d="M55 427h-50v80h50v69q0 37 11 62.5t29.5 42t42 24t48.5 7.5h47v-96h-46q-30 0 -30 -35v-74h76v-80h-76v-427h-102v427z" />
    <glyph glyph-name="g" unicode="g" horiz-adv-x="389" 
d="M144 156q0 -24 10.5 -42t39.5 -18q22 0 36.5 15.5t14.5 39.5v197q0 28 -14 45.5t-37 17.5q-26 0 -38 -19t-12 -50v-186zM144 -59q1 -18 14.5 -34t39.5 -16q25 0 36 15.5t11 39.5v100h-2q-17 -25 -40.5 -38.5t-54.5 -13.5q-63 0 -89 48q-9 17 -13 42t-4 67v193q0 55 3 81
t13 42q13 20 33.5 33t57.5 13q19 0 32.5 -4t24.5 -11t20 -16.5l19 -20.5v46h102v-569q0 -26 -8.5 -52.5t-27.5 -48t-48 -35t-69 -13.5q-23 0 -48 7.5t-46.5 25t-37 46.5t-20.5 73h102z" />
    <glyph glyph-name="h" unicode="h" horiz-adv-x="389" 
d="M42 712h102v-254h2q16 24 38.5 39.5t57.5 15.5q19 0 38 -6.5t34 -21.5t24 -38.5t9 -57.5v-389h-102v351q0 28 -13 44t-37 16q-29 0 -40 -18t-11 -52v-341h-102v712z" />
    <glyph glyph-name="i" unicode="i" 
d="M42 712h102v-102h-102v102zM42 507h102v-507h-102v507z" />
    <glyph glyph-name="j" unicode="j" 
d="M42 712h102v-102h-102v102zM42 507h102v-561q0 -75 -47 -113t-119 -38v96q18 0 30.5 4t20 14.5t10.5 28.5t3 46v523z" />
    <glyph glyph-name="k" unicode="k" horiz-adv-x="389" 
d="M42 712h102v-426h2l123 221h102l-121 -206l146 -301h-111l-92 219l-49 -77v-142h-102v712z" />
    <glyph glyph-name="l" unicode="l" 
d="M36 712h102v-569q0 -29 10.5 -39.5t39.5 -13.5v-96q-35 0 -63.5 5.5t-48 21t-30 43.5t-10.5 72v576z" />
    <glyph glyph-name="m" unicode="m" horiz-adv-x="592" 
d="M42 507h102v-49h2q16 24 38.5 39.5t57.5 15.5q33 0 55 -16t36 -35q19 21 42 36t64 15q19 0 39 -6.5t36 -21.5t26 -38.5t10 -57.5v-389h-102v351q0 28 -13 44t-37 16q-29 0 -40 -18t-11 -52v-341h-102v351q0 28 -13 44t-37 16q-29 0 -40 -18t-11 -52v-341h-102v507z" />
    <glyph glyph-name="n" unicode="n" horiz-adv-x="389" 
d="M42 507h102v-49h2q16 24 38.5 39.5t57.5 15.5q19 0 38 -6.5t34 -21.5t24 -38.5t9 -57.5v-389h-102v351q0 28 -13 44t-37 16q-29 0 -40 -18t-11 -52v-341h-102v507z" />
    <glyph glyph-name="o" unicode="o" horiz-adv-x="370" 
d="M135 154q0 -29 13.5 -43.5t36.5 -14.5t36.5 14.5t13.5 43.5v199q0 29 -13.5 43.5t-36.5 14.5t-36.5 -14.5t-13.5 -43.5v-199zM33 337q0 31 4 57t15 46q18 33 52 53t81 20t81 -20t52 -53q11 -20 15 -46t4 -57v-167q0 -31 -4 -57t-15 -46q-18 -33 -52 -53t-81 -20t-81 20
t-52 53q-11 20 -15 46t-4 57v167z" />
    <glyph glyph-name="p" unicode="p" horiz-adv-x="389" 
d="M245 342q0 31 -12 50t-38 19q-23 0 -37 -17.5t-14 -45.5v-197q0 -24 14.5 -39.5t36.5 -15.5q29 0 39.5 18t10.5 42v186zM42 507h102v-46q19 22 39 37t58 15q63 0 89 -48q9 -17 13 -42t4 -67v-193q0 -55 -3 -81t-13 -42q-13 -20 -33.5 -33t-57.5 -13q-30 0 -53.5 13.5
t-40.5 38.5h-2v-251h-102v712z" />
    <glyph glyph-name="q" unicode="q" horiz-adv-x="389" 
d="M144 156q0 -24 10.5 -42t39.5 -18q22 0 36.5 15.5t14.5 39.5v197q0 28 -14 45.5t-37 17.5q-26 0 -38 -19t-12 -50v-186zM245 46h-2q-17 -25 -40.5 -38.5t-53.5 -13.5q-37 0 -57.5 13t-33.5 33q-10 16 -13 42t-3 81v193q0 42 4 67t13 42q26 48 89 48q19 0 33 -4t25 -11
t20 -16.5l19 -20.5v46h102v-712h-102v251z" />
    <glyph glyph-name="r" unicode="r" horiz-adv-x="278" 
d="M42 507h102v-54q31 28 61 44t74 16v-108q-15 6 -31 6t-34.5 -5.5t-34 -18.5t-25.5 -34t-10 -52v-301h-102v507z" />
    <glyph glyph-name="s" unicode="s" horiz-adv-x="352" 
d="M227 365q-1 26 -16.5 39t-35.5 13q-24 0 -37 -15.5t-13 -35.5q0 -14 7 -27.5t36 -24.5l60 -24q57 -22 78.5 -60t21.5 -83q0 -32 -11.5 -59.5t-31.5 -48.5t-48 -33t-61 -12q-30 0 -57 10t-47.5 29t-33.5 47.5t-14 66.5h96q3 -21 14.5 -39t40.5 -18q22 0 39.5 14.5
t17.5 40.5q0 21 -11 36t-40 26l-49 18q-48 18 -75.5 53.5t-27.5 86.5q0 32 12 59.5t32.5 47t47.5 30.5t58 11t57.5 -11.5t45.5 -31t30 -47t11 -58.5h-96z" />
    <glyph glyph-name="t" unicode="t" horiz-adv-x="204" 
d="M42 661h102v-154h63v-80h-63v-281q0 -18 3.5 -28t11 -15t19.5 -6t29 -1v-96h-42q-35 0 -58.5 11t-37.5 28t-20.5 38.5t-6.5 41.5v308h-51v80h51v154z" />
    <glyph glyph-name="u" unicode="u" horiz-adv-x="389" 
d="M347 0h-102v49h-2q-16 -24 -38.5 -39.5t-57.5 -15.5q-19 0 -38 6.5t-34 21.5t-24 38.5t-9 57.5v389h102v-351q0 -28 13 -44t37 -16q29 0 40 18t11 52v341h102v-507z" />
    <glyph glyph-name="v" unicode="v" horiz-adv-x="352" 
d="M221 0h-90l-132 507h108l68 -324h2l68 324h108z" />
    <glyph glyph-name="w" unicode="w" horiz-adv-x="536" 
d="M415 0h-90l-56 301h-2l-56 -301h-90l-120 507h108l62 -315h2l57 315h80l54 -315h2l61 315h108z" />
    <glyph glyph-name="x" unicode="x" horiz-adv-x="332" 
d="M114 259l-119 248h108l63 -144l63 144h108l-121 -248l127 -259h-108l-69 155l-69 -155h-108z" />
    <glyph glyph-name="y" unicode="y" horiz-adv-x="352" 
d="M107 507l70 -316h2l69 316h105l-146 -595q-8 -34 -22.5 -56.5t-33.5 -36t-40.5 -19t-44.5 -5.5h-28v96h23q15 0 26 4t19.5 17.5t15.5 40t16 70.5l-139 484h108z" />
    <glyph glyph-name="z" unicode="z" horiz-adv-x="315" 
d="M17 81l165 336h-152v90h268v-81l-165 -330h165v-96h-281v81z" />
    <glyph glyph-name="braceleft" unicode="{" horiz-adv-x="222" 
d="M3 337q28 0 46 31.5t18 80.5v152q0 53 29 82t69 29h54v-60h-18q-24 0 -34 -17.5t-10 -48.5v-151q0 -33 -7 -56.5t-17 -38.5t-22.5 -23t-22.5 -10v-2q10 -2 22.5 -9.5t22.5 -22.5t17 -39t7 -58v-149q0 -32 10 -49.5t34 -17.5h18v-60h-54q-40 0 -69 29t-29 82v151
q0 51 -18 83t-46 32v60z" />
    <glyph glyph-name="bar" unicode="|" horiz-adv-x="222" 
d="M71 750h80v-1000h-80v1000z" />
    <glyph glyph-name="braceright" unicode="}" horiz-adv-x="222" 
d="M219 277q-28 0 -46 -32t-18 -83v-151q0 -53 -29 -82t-69 -29h-54v60h18q24 0 34 17.5t10 49.5v149q0 34 7 58t17 39t22 22.5t23 9.5v2q-11 2 -23 10t-22 23t-17 38.5t-7 56.5v151q0 31 -10 48.5t-34 17.5h-18v60h54q40 0 69 -29t29 -82v-152q0 -49 18 -80.5t46 -31.5v-60
z" />
    <glyph glyph-name="asciitilde" unicode="~" horiz-adv-x="600" 
d="M531 265q-8 -16 -19.5 -31.5t-26.5 -28t-34.5 -20t-44.5 -7.5q-26 0 -54 9.5t-57 23.5l-55 24t-47 12q-15 0 -27.5 -6.5t-23 -16.5t-19.5 -22.5l-18 -25.5l-36 64q8 16 19.5 31.5t26.5 28t34.5 20t44.5 7.5q26 0 54 -9.5t57 -23.5l55 -24t47 -12q15 0 27.5 6.5t23 16.5
t19.5 23l18 26z" />
    <glyph glyph-name="exclamdown" unicode="&#xa1;" horiz-adv-x="240" 
d="M69 507h102v-102h-102v102zM95 331h50l39 -536h-128z" />
    <glyph glyph-name="cent" unicode="&#xa2;" horiz-adv-x="372" 
d="M164 -6q-38 3 -66.5 22t-44.5 48q-11 20 -15 46t-4 57v172q0 31 4 57t15 46q16 29 44.5 48t66.5 23v75h41v-75q62 -5 97.5 -49.5t35.5 -112.5h-102q0 26 -8 40.5t-23 19.5v-315q17 6 23 20.5t8 30.5h102q0 -33 -10.5 -61.5t-30.5 -48.5q-17 -18 -40 -29.5t-52 -13.5v-84
h-41v84zM164 411q-12 -4 -20 -19q-8 -14 -8 -35v-215q0 -36 28 -46v315z" />
    <glyph glyph-name="sterling" unicode="&#xa3;" horiz-adv-x="372" 
d="M13 369h55q-19 35 -28.5 68t-9.5 84q0 39 9 75t28.5 63t50.5 43t74 16q25 0 51 -9.5t47.5 -29.5t35.5 -50.5t14 -73.5v-45h-96v40q0 27 -11.5 49.5t-43.5 22.5q-35 0 -49 -30t-14 -72q0 -39 10 -79t22 -72h116v-71h-93q7 -19 12.5 -37.5t5.5 -50.5q0 -30 -9 -57t-23 -52
q17 -2 39 -6.5t43 -4.5q17 0 32.5 5t33.5 27l68 -69q-23 -32 -49.5 -45.5t-61.5 -13.5q-14 0 -36 3l-46 6.5t-47.5 6.5t-40.5 3q-22 0 -45.5 -5.5t-33.5 -10.5v86q8 5 27.5 11.5t36.5 8.5q13 19 20 41.5t7 45.5q0 22 -6 51.5t-17 56.5h-78v71z" />
    <glyph glyph-name="currency" unicode="&#xa4;" horiz-adv-x="372" 
d="M77 356q0 -23 8.5 -42.5t23.5 -34.5t34.5 -23.5t42.5 -8.5q22 0 42 8.5t35 23.5t23.5 34.5t8.5 42.5q0 22 -8.5 42t-23.5 35t-35 23.5t-42 8.5q-23 0 -42.5 -8.5t-34.5 -23.5t-23.5 -35t-8.5 -42zM46 256q-16 17 -25.5 43.5t-9.5 56.5t9 56.5t25 43.5l-41 42l41 41
l41 -42q17 15 43.5 24.5t56.5 9.5t56.5 -9t44.5 -25l41 42l40 -41l-41 -41q16 -18 25 -44.5t9 -56.5q0 -31 -9.5 -57t-24.5 -43l41 -41l-41 -41l-41 41q-17 -16 -43.5 -25t-56.5 -9t-56.5 9.5t-43.5 25.5l-41 -42l-41 40z" />
    <glyph glyph-name="yen" unicode="&#xa5;" horiz-adv-x="372" 
d="M138 172h-114v66h114v49h-114v66h98l-118 359h102l79 -283h2l79 283h102l-118 -359h98v-66h-114v-49h114v-66h-114v-172h-96v172z" />
    <glyph glyph-name="brokenbar" unicode="&#xa6;" horiz-adv-x="222" 
d="M71 675h80v-350h-80v350zM71 175h80v-350h-80v350z" />
    <glyph glyph-name="section" unicode="&#xa7;" horiz-adv-x="370" 
d="M135 213q0 -22 14.5 -37.5t35.5 -15.5q20 0 35 15.5t15 37.5v99q0 22 -15 37.5t-35 15.5q-21 0 -35.5 -15.5t-14.5 -37.5v-99zM325 535h-85v42q0 23 -12.5 42t-37.5 19q-32 0 -42 -21.5t-10 -51.5q0 -18 1 -29.5t6 -20t14 -16.5t26 -18l97 -63q18 -12 29 -23.5
t16.5 -28.5t7.5 -42.5t2 -64.5q0 -36 -2 -60.5t-11 -42.5t-26.5 -31t-47.5 -27q25 -13 40 -25t22.5 -28t10 -37t2.5 -51q0 -42 -5 -67t-20 -47q-17 -25 -48.5 -39.5t-65.5 -14.5q-41 0 -68.5 14t-44 35.5t-23.5 46.5t-7 47v42h85v-41q0 -26 15.5 -45t39.5 -19q31 0 44 19
t13 59q0 19 -1.5 31t-5 20.5t-9.5 14.5t-16 12l-118 72q-20 12 -31.5 25.5t-17 32.5t-7 44t-1.5 60q0 43 4 72t14.5 48t28 30.5t45.5 20.5q-25 12 -39 25t-21.5 28.5t-9.5 35t-2 45.5q0 39 11 68t29.5 48t43.5 28.5t53 9.5q25 0 49 -8.5t43 -25.5t31 -43t12 -60v-46z" />
    <glyph glyph-name="dieresis" unicode="&#xa8;" 
d="M129 688h90v-102h-90v102zM-33 688h90v-102h-90v102z" />
    <glyph glyph-name="copyright" unicode="&#xa9;" horiz-adv-x="800" 
d="M38 356q0 75 28.5 141t77.5 115t115 77.5t141 28.5t141 -28.5t115 -77.5t77.5 -115t28.5 -141t-28.5 -141t-77.5 -115t-115 -77.5t-141 -28.5t-141 28.5t-115 77.5t-77.5 115t-28.5 141zM690 356q0 61 -23 115t-62 94t-92 63.5t-113 23.5t-113 -23.5t-92 -63.5t-62 -94
t-23 -115t23 -115t62 -94t92 -63.5t113 -23.5t113 23.5t92 63.5t62 94t23 115zM590 287q-7 -35 -23 -64t-39.5 -49.5t-52.5 -31.5t-62 -11q-49 0 -88.5 17.5t-67.5 48t-43 71.5t-15 88q0 49 14.5 90.5t41.5 71.5t66 47t89 17q34 0 64.5 -10t54.5 -29t40 -47.5t21 -64.5h-66
q-4 18 -14 33.5t-25 27t-34 18t-40 6.5q-33 0 -59 -12.5t-44 -34t-27.5 -50t-9.5 -61.5q0 -31 10 -60t28.5 -51.5t45 -36t58.5 -13.5q43 0 73.5 26t37.5 64h66z" />
    <glyph glyph-name="ordfeminine" unicode="&#xaa;" horiz-adv-x="240" 
d="M154 541q-5 1 -9.5 1.5t-8.5 0.5q-22 0 -36 -9.5t-14 -34.5q0 -29 32 -29q17 0 26.5 10t9.5 24v37zM154 441h-2q-13 -17 -26 -26t-37 -9q-12 0 -25 3t-24 12t-18.5 25t-7.5 42q0 52 23 79t85 27q7 0 14 -0.5t18 -1.5v24q0 15 -7.5 25.5t-25.5 10.5q-13 0 -24 -6.5
t-13 -23.5h-66q3 44 30 70q29 26 73 26q21 0 40 -6t33.5 -18t23 -30t8.5 -42v-212h-72v31z" />
    <glyph glyph-name="guillemotleft" unicode="&#xab;" horiz-adv-x="426" 
d="M213 377l-101 -100l101 -100v-102l-203 202l203 202v-102zM398 377l-101 -100l101 -100v-102l-203 202l203 202v-102z" />
    <glyph glyph-name="logicalnot" unicode="&#xac;" horiz-adv-x="600" 
d="M473 313h-426v80h506v-280h-80v200z" />
    <glyph glyph-name="registered" unicode="&#xae;" horiz-adv-x="800" 
d="M38 356q0 75 28.5 141t77.5 115t115 77.5t141 28.5t141 -28.5t115 -77.5t77.5 -115t28.5 -141t-28.5 -141t-77.5 -115t-115 -77.5t-141 -28.5t-141 28.5t-115 77.5t-77.5 115t-28.5 141zM690 356q0 61 -23 115t-62 94t-92 63.5t-113 23.5t-113 -23.5t-92 -63.5t-62 -94
t-23 -115t23 -115t62 -94t92 -63.5t113 -23.5t113 23.5t92 63.5t62 94t23 115zM263 567h160q145 0 145 -119q0 -30 -8.5 -51t-23.5 -35t-34.5 -21.5t-41.5 -10.5l121 -185h-80l-121 183h-51v-183h-66v422zM329 388h75q49 0 73.5 14.5t24.5 48.5q0 29 -21.5 42.5t-55.5 13.5
h-96v-119z" />
    <glyph glyph-name="macron" unicode="&#xaf;" 
d="M-44 667h274v-60h-274v60z" />
    <glyph glyph-name="macron" unicode="&#x2c9;" 
d="M-44 667h274v-60h-274v60z" />
    <glyph glyph-name="degree" unicode="&#xb0;" horiz-adv-x="260" 
d="M18 606q0 23 9 43.5t24 35.5t35.5 24t43.5 9t43.5 -9t35.5 -24t24 -35.5t9 -43.5t-9 -43.5t-24 -35.5t-35.5 -24t-43.5 -9t-43.5 9t-35.5 24t-24 35.5t-9 43.5zM69 606q0 -26 17.5 -43.5t43.5 -17.5t43.5 17.5t17.5 43.5t-17.5 43.5t-43.5 17.5t-43.5 -17.5t-17.5 -43.5z
" />
    <glyph glyph-name="plusminus" unicode="&#xb1;" horiz-adv-x="600" 
d="M47 80h506v-80h-506v80zM260 265h-213v80h213v161h80v-161h213v-80h-213v-161h-80v161z" />
    <glyph glyph-name="uni00B2" unicode="&#xb2;" horiz-adv-x="242" 
d="M11 620q0 21 8.5 39t23.5 31t35 20.5t43 7.5q22 0 42 -7t35 -19t24 -28.5t9 -36.5v-33q0 -26 -6 -42t-17 -33l-95 -160h118v-72h-220v54l128 212q5 9 8.5 18.5t3.5 20.5v23q0 15 -10 23t-21 8t-20 -8t-9 -23v-31h-80v36z" />
    <glyph glyph-name="uni00B3" unicode="&#xb3;" horiz-adv-x="242" 
d="M100 540q29 0 39.5 6.5t11.5 27.5v42q0 13 -8 21.5t-22 8.5q-16 0 -23 -10.5t-7 -19.5v-26h-80v32q0 42 31 69t81 27q28 0 48 -8.5t33.5 -23t20 -32.5t6.5 -36v-41q0 -22 -7 -38.5t-34 -30.5q24 -14 32.5 -31t8.5 -42v-51q0 -18 -6 -36.5t-19.5 -32.5t-34.5 -23t-50 -9
q-20 0 -40 5t-35.5 16t-25 29t-9.5 44v34h80v-23q0 -15 8 -24t22 -9q13 0 21.5 9.5t8.5 20.5v52q0 23 -10 30t-41 7v66z" />
    <glyph glyph-name="acute" unicode="&#xb4;" 
d="M118 715h108l-132 -141h-66z" />
    <glyph glyph-name="mu" unicode="&#xb5;" horiz-adv-x="389" 
d="M347 0h-102v49h-2q-7 -14 -15.5 -24.5t-16.5 -17.5q-17 -13 -34 -13q-21 0 -31 10h-2v-209h-102v712h102v-351q0 -28 13 -44t37 -16q29 0 40 18t11 52v341h102v-507z" />
    <glyph glyph-name="mu" unicode="&#x3bc;" horiz-adv-x="389" 
d="M347 0h-102v49h-2q-7 -14 -15.5 -24.5t-16.5 -17.5q-17 -13 -34 -13q-21 0 -31 10h-2v-209h-102v712h102v-351q0 -28 13 -44t37 -16q29 0 40 18t11 52v341h102v-507z" />
    <glyph glyph-name="paragraph" unicode="&#xb6;" horiz-adv-x="444" 
d="M182 334q-33 0 -64 14.5t-55.5 39.5t-39.5 59t-15 73q0 49 16 85t44.5 60t68.5 35.5t89 11.5h172v-917h-72v866h-72v-866h-72v539z" />
    <glyph glyph-name="periodcentered" unicode="&#xb7;" 
d="M29 298q0 26 19 45t45 19t45 -19t19 -45t-19 -45t-45 -19t-45 19t-19 45z" />
    <glyph glyph-name="periodcentered" unicode="&#x2219;" 
d="M29 298q0 26 19 45t45 19t45 -19t19 -45t-19 -45t-45 -19t-45 19t-19 45z" />
    <glyph glyph-name="cedilla" unicode="&#xb8;" 
d="M85 0h46l-46 -60q8 1 15.5 1.5t15.5 0.5q25 0 41 -7t26 -18.5t14 -24.5t4 -25q0 -24 -11.5 -41.5t-29.5 -28.5t-39.5 -16t-42.5 -5q-29 0 -54 7t-39 12l17 42q16 -6 32 -10.5t33 -4.5q8 0 17.5 1.5t17.5 6t13.5 12.5t5.5 21q0 17 -14 27.5t-31 10.5q-21 0 -39 -7l-17 20z
" />
    <glyph glyph-name="uni00B9" unicode="&#xb9;" horiz-adv-x="242" 
d="M93 640l-66 -43v72l66 43h80v-425h-80v353z" />
    <glyph glyph-name="ordmasculine" unicode="&#xba;" horiz-adv-x="240" 
d="M90 506q0 -34 30 -34t30 34v111q0 35 -30 35t-30 -35v-111zM18 619q0 43 27.5 71t74.5 28t74.5 -28t27.5 -71v-114q0 -43 -27.5 -71t-74.5 -28t-74.5 28t-27.5 71v114z" />
    <glyph glyph-name="guillemotright" unicode="&#xbb;" horiz-adv-x="426" 
d="M28 177l101 100l-101 100v102l203 -202l-203 -202v102zM213 177l101 100l-101 100v102l203 -202l-203 -202v102z" />
    <glyph glyph-name="onequarter" unicode="&#xbc;" horiz-adv-x="555" 
d="M434 62h-143v62l98 303h80l-94 -299h59v115h80v-115h30v-66h-30v-62h-80v62zM77 640l-66 -43v72l66 43h80v-425h-80v353zM455 729h60l-437 -746h-60z" />
    <glyph glyph-name="onehalf" unicode="&#xbd;" horiz-adv-x="555" 
d="M322 54l130 212q5 9 8.5 18.5t3.5 20.5v23q0 15 -10 23t-21 8q-13 0 -22 -8t-9 -23v-31h-80v36q0 42 32 70t80 28q22 0 42 -7t35 -19t24 -28.5t9 -36.5v-33q0 -26 -6 -42t-17 -33l-95 -160h118v-72h-222v54zM77 640l-66 -43v72l66 43h80v-425h-80v353zM455 729h60
l-437 -746h-60z" />
    <glyph glyph-name="threequarters" unicode="&#xbe;" horiz-adv-x="555" 
d="M434 62h-143v62l98 303h80l-94 -299h59v115h80v-115h30v-66h-30v-62h-80v62zM100 540q29 0 39.5 6.5t11.5 27.5v42q0 13 -8 21.5t-22 8.5q-16 0 -23 -10.5t-7 -19.5v-26h-80v32q0 42 31 69t81 27q28 0 48 -8.5t33.5 -23t20 -32.5t6.5 -36v-41q0 -22 -7 -38.5t-34 -30.5
q24 -14 32.5 -31t8.5 -42v-51q0 -18 -6 -36.5t-19.5 -32.5t-34.5 -23t-50 -9q-20 0 -40 5t-35.5 16t-25 29t-9.5 44v34h80v-23q0 -15 8 -24t22 -9q13 0 21.5 9.5t8.5 20.5v52q0 23 -10 30t-41 7v66zM474 729h60l-437 -746h-60z" />
    <glyph glyph-name="questiondown" unicode="&#xbf;" horiz-adv-x="370" 
d="M236 405h-102v102h102v-102zM338 -59q0 -32 -12 -59.5t-33 -48t-49 -32.5t-60 -12q-37 0 -67.5 15t-50.5 42q-10 13 -16.5 25.5t-10.5 26t-5.5 30.5t-1.5 40q0 25 0.5 43t2.5 31t5 22.5t8 17.5l69 118q7 12 12 24.5t5 26.5v80h102v-93q0 -22 -7 -42t-18 -39l-64 -104
q-8 -13 -10.5 -28t-2.5 -30v-53q0 -21 14.5 -36t35.5 -15q18 0 35 13t17 38v58h102v-59z" />
    <glyph glyph-name="Agrave" unicode="&#xc0;" horiz-adv-x="407" 
d="M161 712h85l159 -712h-102l-30 153h-139l-30 -153h-102zM204 507h-2l-50 -258h102zM269 744h-66l-132 141h108z" />
    <glyph glyph-name="Aacute" unicode="&#xc1;" horiz-adv-x="407" 
d="M161 712h85l159 -712h-102l-30 153h-139l-30 -153h-102zM204 507h-2l-50 -258h102zM229 885h108l-132 -141h-66z" />
    <glyph glyph-name="Acircumflex" unicode="&#xc2;" horiz-adv-x="407" 
d="M161 712h85l159 -712h-102l-30 153h-139l-30 -153h-102zM204 507h-2l-50 -258h102zM157 885h94l98 -141h-78l-67 95l-67 -95h-78z" />
    <glyph glyph-name="Atilde" unicode="&#xc3;" horiz-adv-x="407" 
d="M161 712h85l159 -712h-102l-30 153h-139l-30 -153h-102zM204 507h-2l-50 -258h102zM374 869q-5 -23 -12 -43t-19 -35t-29 -24t-41 -9q-12 0 -32.5 6t-42.5 13.5l-41 14t-28 6.5q-21 0 -32 -12.5t-12 -32.5h-51q4 23 11.5 43t19.5 35t29 24t41 9q12 0 32.5 -6.5l42.5 -14
t41.5 -13.5t27.5 -6q21 0 32 12.5t12 32.5h51z" />
    <glyph glyph-name="Adieresis" unicode="&#xc4;" horiz-adv-x="407" 
d="M161 712h85l159 -712h-102l-30 153h-139l-30 -153h-102zM204 507h-2l-50 -258h102zM240 858h90v-102h-90v102zM78 858h90v-102h-90v102z" />
    <glyph glyph-name="Aring" unicode="&#xc5;" horiz-adv-x="407" 
d="M161 712h85l159 -712h-102l-30 153h-139l-30 -153h-102zM204 507h-2l-50 -258h102zM143 835q0 -26 17.5 -43.5t43.5 -17.5t43.5 17.5t17.5 43.5t-17.5 43.5t-43.5 17.5t-43.5 -17.5t-17.5 -43.5zM102 835q0 21 8 39.5t22 32.5t32.5 22t39.5 8t39.5 -8t32.5 -22t22 -32.5
t8 -39.5t-8 -39.5t-22 -32.5t-32.5 -22t-39.5 -8t-39.5 8t-32.5 22t-22 32.5t-8 39.5z" />
    <glyph glyph-name="AE" unicode="&#xc6;" horiz-adv-x="611" 
d="M289 616h-24l-92 -367h116v367zM204 712h389v-96h-202v-209h176v-96h-176v-209h202v-102h-304v153h-140l-39 -153h-108z" />
    <glyph glyph-name="Ccedilla" unicode="&#xc7;" horiz-adv-x="407" 
d="M192 -6q-27 2 -54 12t-48.5 29.5t-34.5 50.5t-13 76v392q0 35 12 65t34 52t52.5 34.5t67.5 12.5q35 0 65 -12.5t52 -35t34.5 -54t12.5 -68.5v-40h-102v34q0 30 -17 52t-46 22q-38 0 -50.5 -23.5t-12.5 -59.5v-364q0 -31 13.5 -52t48.5 -21q10 0 21.5 3.5t21 11.5t15.5 22
t6 35v35h102v-44q0 -29 -10 -56t-27.5 -49t-42 -37t-53.5 -21l-43 -56q8 1 15.5 1.5t15.5 0.5q25 0 41 -7t26 -18.5t14 -24.5t4 -25q0 -24 -11.5 -41.5t-29.5 -28.5t-39.5 -16t-42.5 -5q-29 0 -54 7t-39 12l17 42q16 -6 32 -10.5t33 -4.5q8 0 17.5 1.5t17.5 6t13.5 12.5
t5.5 21q0 17 -14 27.5t-31 10.5q-21 0 -39 -7l-17 20z" />
    <glyph glyph-name="Egrave" unicode="&#xc8;" horiz-adv-x="370" 
d="M48 712h304v-96h-202v-209h176v-96h-176v-209h202v-102h-304v712zM260 744h-66l-132 141h108z" />
    <glyph glyph-name="Eacute" unicode="&#xc9;" horiz-adv-x="370" 
d="M48 712h304v-96h-202v-209h176v-96h-176v-209h202v-102h-304v712zM220 885h108l-132 -141h-66z" />
    <glyph glyph-name="Ecircumflex" unicode="&#xca;" horiz-adv-x="370" 
d="M48 712h304v-96h-202v-209h176v-96h-176v-209h202v-102h-304v712zM148 885h94l98 -141h-78l-67 95l-67 -95h-78z" />
    <glyph glyph-name="Edieresis" unicode="&#xcb;" horiz-adv-x="370" 
d="M48 712h304v-96h-202v-209h176v-96h-176v-209h202v-102h-304v712zM231 858h90v-102h-90v102zM69 858h90v-102h-90v102z" />
    <glyph glyph-name="Igrave" unicode="&#xcc;" horiz-adv-x="204" 
d="M51 712h102v-712h-102v712zM167 744h-66l-132 141h108z" />
    <glyph glyph-name="Iacute" unicode="&#xcd;" horiz-adv-x="204" 
d="M51 712h102v-712h-102v712zM127 885h108l-132 -141h-66z" />
    <glyph glyph-name="Icircumflex" unicode="&#xce;" horiz-adv-x="204" 
d="M51 712h102v-712h-102v712zM55 885h94l98 -141h-78l-67 95l-67 -95h-78z" />
    <glyph glyph-name="Idieresis" unicode="&#xcf;" horiz-adv-x="204" 
d="M51 712h102v-712h-102v712zM138 858h90v-102h-90v102zM-24 858h90v-102h-90v102z" />
    <glyph glyph-name="Eth" unicode="&#xd0;" horiz-adv-x="426" 
d="M48 350h-48v66h48v296h151q87 0 133 -48.5t46 -135.5v-333q0 -100 -48.5 -147.5t-139.5 -47.5h-142v350zM150 416h70v-66h-70v-254h47q43 0 61 21.5t18 67.5v343q0 42 -17 65t-62 23h-47v-200z" />
    <glyph glyph-name="Ntilde" unicode="&#xd1;" horiz-adv-x="444" 
d="M44 712h98l154 -429h2v429h102v-712h-96l-156 428h-2v-428h-102v712zM392 869q-5 -23 -12 -43t-19 -35t-29 -24t-41 -9q-12 0 -32.5 6t-42.5 13.5l-41 14t-28 6.5q-21 0 -32 -12.5t-12 -32.5h-51q4 23 11.5 43t19.5 35t29 24t41 9q12 0 32.5 -6.5l42.5 -14t41.5 -13.5
t27.5 -6q21 0 32 12.5t12 32.5h51z" />
    <glyph glyph-name="Ograve" unicode="&#xd2;" horiz-adv-x="426" 
d="M144 168q0 -37 20.5 -54.5t48.5 -17.5t48.5 17.5t20.5 54.5v376q0 37 -20.5 54.5t-48.5 17.5t-48.5 -17.5t-20.5 -54.5v-376zM42 544q0 43 15 76t39.5 54.5t55 32.5t61.5 11t61.5 -11t55 -32.5t39.5 -54.5t15 -76v-376q0 -44 -15 -76.5t-39.5 -54t-55 -32.5t-61.5 -11
t-61.5 11t-55 32.5t-39.5 54t-15 76.5v376zM278 744h-66l-132 141h108z" />
    <glyph glyph-name="Oacute" unicode="&#xd3;" horiz-adv-x="426" 
d="M144 168q0 -37 20.5 -54.5t48.5 -17.5t48.5 17.5t20.5 54.5v376q0 37 -20.5 54.5t-48.5 17.5t-48.5 -17.5t-20.5 -54.5v-376zM42 544q0 43 15 76t39.5 54.5t55 32.5t61.5 11t61.5 -11t55 -32.5t39.5 -54.5t15 -76v-376q0 -44 -15 -76.5t-39.5 -54t-55 -32.5t-61.5 -11
t-61.5 11t-55 32.5t-39.5 54t-15 76.5v376zM238 885h108l-132 -141h-66z" />
    <glyph glyph-name="Ocircumflex" unicode="&#xd4;" horiz-adv-x="426" 
d="M144 168q0 -37 20.5 -54.5t48.5 -17.5t48.5 17.5t20.5 54.5v376q0 37 -20.5 54.5t-48.5 17.5t-48.5 -17.5t-20.5 -54.5v-376zM42 544q0 43 15 76t39.5 54.5t55 32.5t61.5 11t61.5 -11t55 -32.5t39.5 -54.5t15 -76v-376q0 -44 -15 -76.5t-39.5 -54t-55 -32.5t-61.5 -11
t-61.5 11t-55 32.5t-39.5 54t-15 76.5v376zM166 885h94l98 -141h-78l-67 95l-67 -95h-78z" />
    <glyph glyph-name="Otilde" unicode="&#xd5;" horiz-adv-x="426" 
d="M144 168q0 -37 20.5 -54.5t48.5 -17.5t48.5 17.5t20.5 54.5v376q0 37 -20.5 54.5t-48.5 17.5t-48.5 -17.5t-20.5 -54.5v-376zM42 544q0 43 15 76t39.5 54.5t55 32.5t61.5 11t61.5 -11t55 -32.5t39.5 -54.5t15 -76v-376q0 -44 -15 -76.5t-39.5 -54t-55 -32.5t-61.5 -11
t-61.5 11t-55 32.5t-39.5 54t-15 76.5v376zM383 869q-5 -23 -12 -43t-19 -35t-29 -24t-41 -9q-12 0 -32.5 6t-42.5 13.5l-41 14t-28 6.5q-21 0 -32 -12.5t-12 -32.5h-51q4 23 11.5 43t19.5 35t29 24t41 9q12 0 32.5 -6.5l42.5 -14t41.5 -13.5t27.5 -6q21 0 32 12.5t12 32.5
h51z" />
    <glyph glyph-name="Odieresis" unicode="&#xd6;" horiz-adv-x="426" 
d="M144 168q0 -37 20.5 -54.5t48.5 -17.5t48.5 17.5t20.5 54.5v376q0 37 -20.5 54.5t-48.5 17.5t-48.5 -17.5t-20.5 -54.5v-376zM42 544q0 43 15 76t39.5 54.5t55 32.5t61.5 11t61.5 -11t55 -32.5t39.5 -54.5t15 -76v-376q0 -44 -15 -76.5t-39.5 -54t-55 -32.5t-61.5 -11
t-61.5 11t-55 32.5t-39.5 54t-15 76.5v376zM249 858h90v-102h-90v102zM87 858h90v-102h-90v102z" />
    <glyph glyph-name="multiply" unicode="&#xd7;" horiz-adv-x="600" 
d="M244 253l-177 177l57 56l176 -176l177 176l56 -56l-176 -177l176 -176l-56 -57l-177 177l-176 -177l-57 57z" />
    <glyph glyph-name="Oslash" unicode="&#xd8;" horiz-adv-x="426" 
d="M144 163q2 -34 22 -50.5t47 -16.5q28 0 48.5 17.5t20.5 54.5v281h-2zM282 549q-2 35 -22.5 51t-46.5 16q-28 0 -48.5 -17.5t-20.5 -54.5v-282h2zM60 87q-18 34 -18 81v376q0 43 15 76t39.5 54.5t55 32.5t61.5 11q34 0 66.5 -13t58.5 -39l40 84l38 -22l-50 -103
q8 -16 13 -36.5t5 -44.5v-376q0 -44 -15 -76.5t-39.5 -54t-55 -32.5t-61.5 -11q-35 0 -68 13t-57 39l-40 -84l-38 22z" />
    <glyph glyph-name="Ugrave" unicode="&#xd9;" horiz-adv-x="426" 
d="M378 160q0 -35 -13 -65t-35.5 -52.5t-52.5 -35.5t-64 -13t-64 13t-52.5 35.5t-35.5 52.5t-13 65v552h102v-542q0 -38 18 -56t45 -18t45 18t18 56v542h102v-552zM278 744h-66l-132 141h108z" />
    <glyph glyph-name="Uacute" unicode="&#xda;" horiz-adv-x="426" 
d="M378 160q0 -35 -13 -65t-35.5 -52.5t-52.5 -35.5t-64 -13t-64 13t-52.5 35.5t-35.5 52.5t-13 65v552h102v-542q0 -38 18 -56t45 -18t45 18t18 56v542h102v-552zM238 885h108l-132 -141h-66z" />
    <glyph glyph-name="Ucircumflex" unicode="&#xdb;" horiz-adv-x="426" 
d="M378 160q0 -35 -13 -65t-35.5 -52.5t-52.5 -35.5t-64 -13t-64 13t-52.5 35.5t-35.5 52.5t-13 65v552h102v-542q0 -38 18 -56t45 -18t45 18t18 56v542h102v-552zM166 885h94l98 -141h-78l-67 95l-67 -95h-78z" />
    <glyph glyph-name="Udieresis" unicode="&#xdc;" horiz-adv-x="426" 
d="M378 160q0 -35 -13 -65t-35.5 -52.5t-52.5 -35.5t-64 -13t-64 13t-52.5 35.5t-35.5 52.5t-13 65v552h102v-542q0 -38 18 -56t45 -18t45 18t18 56v542h102v-552zM249 858h90v-102h-90v102zM87 858h90v-102h-90v102z" />
    <glyph glyph-name="Yacute" unicode="&#xdd;" horiz-adv-x="388" 
d="M143 301l-140 411h108l82 -283h2l82 283h108l-140 -411v-301h-102v301zM219 885h108l-132 -141h-66z" />
    <glyph glyph-name="Thorn" unicode="&#xde;" horiz-adv-x="407" 
d="M150 250h49q31 0 48 9t25 24.5t9.5 37.5t1.5 49q0 25 -1.5 47.5t-9 39t-23.5 26t-46 9.5h-53v-242zM48 712h102v-124h51q42 0 74 -11t58 -39t36 -65.5t10 -101.5q0 -47 -5.5 -80.5t-23.5 -62.5q-21 -35 -56 -54.5t-92 -19.5h-52v-154h-102v712z" />
    <glyph glyph-name="germandbls" unicode="&#xdf;" horiz-adv-x="389" 
d="M42 552q0 33 9 63t27.5 53t47 36.5t67.5 13.5q43 0 72.5 -14t47.5 -38.5t26 -58t8 -71.5q0 -27 -2.5 -45t-9 -32t-18 -24.5t-29.5 -22.5q29 -16 44 -40t15 -62v-176q0 -47 -12.5 -74.5t-32.5 -42t-46.5 -19t-54.5 -4.5v96q22 0 33 9.5t11 41.5v190q0 20 -11.5 26.5
t-32.5 6.5v90q23 0 33.5 7.5t10.5 31.5v80q0 21 -9.5 35t-38.5 14t-41 -19t-12 -69v-534h-102v552z" />
    <glyph glyph-name="agrave" unicode="&#xe0;" horiz-adv-x="370" 
d="M239 218q-17 3 -28 3q-33 0 -56.5 -15.5t-23.5 -56.5q0 -29 14 -47t39 -18q26 0 40.5 17t14.5 48v69zM239 52h-2q-20 -28 -40.5 -43t-57.5 -15q-18 0 -37 5.5t-35.5 20t-27 41t-10.5 68.5q0 43 7 75.5t25.5 54t49.5 32t79 10.5q11 0 22 -1t27 -2v53q0 26 -11 43t-40 17
q-20 0 -36.5 -13t-21.5 -38h-99q5 69 46 110q20 20 48 31.5t63 11.5q32 0 60 -10t48.5 -30t32.5 -50t12 -70v-353h-102v52zM250 574h-66l-132 141h108z" />
    <glyph glyph-name="aacute" unicode="&#xe1;" horiz-adv-x="370" 
d="M239 218q-17 3 -28 3q-33 0 -56.5 -15.5t-23.5 -56.5q0 -29 14 -47t39 -18q26 0 40.5 17t14.5 48v69zM239 52h-2q-20 -28 -40.5 -43t-57.5 -15q-18 0 -37 5.5t-35.5 20t-27 41t-10.5 68.5q0 43 7 75.5t25.5 54t49.5 32t79 10.5q11 0 22 -1t27 -2v53q0 26 -11 43t-40 17
q-20 0 -36.5 -13t-21.5 -38h-99q5 69 46 110q20 20 48 31.5t63 11.5q32 0 60 -10t48.5 -30t32.5 -50t12 -70v-353h-102v52zM210 715h108l-132 -141h-66z" />
    <glyph glyph-name="acircumflex" unicode="&#xe2;" horiz-adv-x="370" 
d="M239 218q-17 3 -28 3q-33 0 -56.5 -15.5t-23.5 -56.5q0 -29 14 -47t39 -18q26 0 40.5 17t14.5 48v69zM239 52h-2q-20 -28 -40.5 -43t-57.5 -15q-18 0 -37 5.5t-35.5 20t-27 41t-10.5 68.5q0 43 7 75.5t25.5 54t49.5 32t79 10.5q11 0 22 -1t27 -2v53q0 26 -11 43t-40 17
q-20 0 -36.5 -13t-21.5 -38h-99q5 69 46 110q20 20 48 31.5t63 11.5q32 0 60 -10t48.5 -30t32.5 -50t12 -70v-353h-102v52zM138 715h94l98 -141h-78l-67 95l-67 -95h-78z" />
    <glyph glyph-name="atilde" unicode="&#xe3;" horiz-adv-x="370" 
d="M239 218q-17 3 -28 3q-33 0 -56.5 -15.5t-23.5 -56.5q0 -29 14 -47t39 -18q26 0 40.5 17t14.5 48v69zM239 52h-2q-20 -28 -40.5 -43t-57.5 -15q-18 0 -37 5.5t-35.5 20t-27 41t-10.5 68.5q0 43 7 75.5t25.5 54t49.5 32t79 10.5q11 0 22 -1t27 -2v53q0 26 -11 43t-40 17
q-20 0 -36.5 -13t-21.5 -38h-99q5 69 46 110q20 20 48 31.5t63 11.5q32 0 60 -10t48.5 -30t32.5 -50t12 -70v-353h-102v52zM355 699q-5 -23 -12 -43t-19 -35t-29 -24t-41 -9q-12 0 -32.5 6t-42.5 13.5l-41 14t-28 6.5q-21 0 -32 -12.5t-12 -32.5h-51q4 23 11.5 43t19.5 35
t29 24t41 9q12 0 32.5 -6.5l42.5 -14t41.5 -13.5t27.5 -6q21 0 32 12.5t12 32.5h51z" />
    <glyph glyph-name="adieresis" unicode="&#xe4;" horiz-adv-x="370" 
d="M239 218q-17 3 -28 3q-33 0 -56.5 -15.5t-23.5 -56.5q0 -29 14 -47t39 -18q26 0 40.5 17t14.5 48v69zM239 52h-2q-20 -28 -40.5 -43t-57.5 -15q-18 0 -37 5.5t-35.5 20t-27 41t-10.5 68.5q0 43 7 75.5t25.5 54t49.5 32t79 10.5q11 0 22 -1t27 -2v53q0 26 -11 43t-40 17
q-20 0 -36.5 -13t-21.5 -38h-99q5 69 46 110q20 20 48 31.5t63 11.5q32 0 60 -10t48.5 -30t32.5 -50t12 -70v-353h-102v52zM221 688h90v-102h-90v102zM59 688h90v-102h-90v102z" />
    <glyph glyph-name="aring" unicode="&#xe5;" horiz-adv-x="370" 
d="M239 218q-17 3 -28 3q-33 0 -56.5 -15.5t-23.5 -56.5q0 -29 14 -47t39 -18q26 0 40.5 17t14.5 48v69zM239 52h-2q-20 -28 -40.5 -43t-57.5 -15q-18 0 -37 5.5t-35.5 20t-27 41t-10.5 68.5q0 43 7 75.5t25.5 54t49.5 32t79 10.5q11 0 22 -1t27 -2v53q0 26 -11 43t-40 17
q-20 0 -36.5 -13t-21.5 -38h-99q5 69 46 110q20 20 48 31.5t63 11.5q32 0 60 -10t48.5 -30t32.5 -50t12 -70v-353h-102v52zM124 660q0 -26 17.5 -43.5t43.5 -17.5t43.5 17.5t17.5 43.5t-17.5 43.5t-43.5 17.5t-43.5 -17.5t-17.5 -43.5zM83 660q0 21 8 39.5t22 32.5t32.5 22
t39.5 8t39.5 -8t32.5 -22t22 -32.5t8 -39.5t-8 -39.5t-22 -32.5t-32.5 -22t-39.5 -8t-39.5 8t-32.5 22t-22 32.5t-8 39.5z" />
    <glyph glyph-name="ae" unicode="&#xe6;" horiz-adv-x="572" 
d="M235 218q-17 3 -28 3q-33 0 -56.5 -15.5t-23.5 -56.5q0 -29 14 -47t39 -18q26 0 40.5 17t14.5 48v69zM539 215h-202v-69q0 -24 13.5 -37t36.5 -13q29 0 38.5 17t11.5 34h102q0 -33 -11 -61t-31.5 -48t-48.5 -32t-61 -12q-51 -1 -84.5 21t-48.5 51q-18 -36 -49.5 -54
t-69.5 -18q-18 0 -37 5.5t-35.5 20t-27 41t-10.5 68.5q0 43 7 75.5t25.5 54t49.5 32t79 10.5q11 0 22 -1t27 -2v53q0 26 -11 43t-40 17q-20 0 -36.5 -13t-21.5 -38h-99q2 34 14 62t32 48t48 31.5t63 11.5q32 0 56.5 -9.5t44.5 -26.5q19 17 46 26.5t56 9.5q35 0 63.5 -12
t48 -33.5t30 -50.5t10.5 -62v-140zM337 295h100v58q0 29 -13.5 43.5t-36.5 14.5t-36.5 -14.5t-13.5 -43.5v-58z" />
    <glyph glyph-name="ccedilla" unicode="&#xe7;" horiz-adv-x="370" 
d="M175 -4q-38 5 -65.5 24t-42.5 47q-11 20 -15 46t-4 57v167q0 31 4 57t15 46q18 33 52 53t81 20q35 0 63.5 -12t48 -33.5t30 -51.5t10.5 -65h-102q0 31 -13.5 45.5t-36.5 14.5t-36.5 -14.5t-13.5 -43.5v-207q0 -24 13.5 -37t36.5 -13q29 0 38.5 17t11.5 34h102
q0 -32 -10.5 -60t-30.5 -48q-36 -37 -91 -43l-43 -56q8 1 15.5 1.5t15.5 0.5q25 0 41 -7t26 -18.5t14 -24.5t4 -25q0 -24 -11.5 -41.5t-29.5 -28.5t-39.5 -16t-42.5 -5q-29 0 -54 7t-39 12l17 42q16 -6 32 -10.5t33 -4.5q8 0 17.5 1.5t17.5 6t13.5 12.5t5.5 21
q0 17 -14 27.5t-31 10.5q-21 0 -39 -7l-17 20z" />
    <glyph glyph-name="egrave" unicode="&#xe8;" horiz-adv-x="370" 
d="M135 295h100v58q0 29 -13.5 43.5t-36.5 14.5t-36.5 -14.5t-13.5 -43.5v-58zM135 215v-69q0 -24 13.5 -37t36.5 -13q29 0 38.5 17t11.5 34h102q0 -32 -10.5 -60t-30.5 -48q-20 -21 -48 -33t-63 -12q-47 0 -81 20t-52 53q-11 20 -15 46t-4 57v167q0 31 4 57t15 46
q18 33 52 53t81 20q35 0 63.5 -12t48 -33.5t30 -50.5t10.5 -62v-140h-202zM250 574h-66l-132 141h108z" />
    <glyph glyph-name="eacute" unicode="&#xe9;" horiz-adv-x="370" 
d="M135 295h100v58q0 29 -13.5 43.5t-36.5 14.5t-36.5 -14.5t-13.5 -43.5v-58zM135 215v-69q0 -24 13.5 -37t36.5 -13q29 0 38.5 17t11.5 34h102q0 -32 -10.5 -60t-30.5 -48q-20 -21 -48 -33t-63 -12q-47 0 -81 20t-52 53q-11 20 -15 46t-4 57v167q0 31 4 57t15 46
q18 33 52 53t81 20q35 0 63.5 -12t48 -33.5t30 -50.5t10.5 -62v-140h-202zM210 715h108l-132 -141h-66z" />
    <glyph glyph-name="ecircumflex" unicode="&#xea;" horiz-adv-x="370" 
d="M135 295h100v58q0 29 -13.5 43.5t-36.5 14.5t-36.5 -14.5t-13.5 -43.5v-58zM135 215v-69q0 -24 13.5 -37t36.5 -13q29 0 38.5 17t11.5 34h102q0 -32 -10.5 -60t-30.5 -48q-20 -21 -48 -33t-63 -12q-47 0 -81 20t-52 53q-11 20 -15 46t-4 57v167q0 31 4 57t15 46
q18 33 52 53t81 20q35 0 63.5 -12t48 -33.5t30 -50.5t10.5 -62v-140h-202zM138 715h94l98 -141h-78l-67 95l-67 -95h-78z" />
    <glyph glyph-name="edieresis" unicode="&#xeb;" horiz-adv-x="370" 
d="M135 295h100v58q0 29 -13.5 43.5t-36.5 14.5t-36.5 -14.5t-13.5 -43.5v-58zM135 215v-69q0 -24 13.5 -37t36.5 -13q29 0 38.5 17t11.5 34h102q0 -32 -10.5 -60t-30.5 -48q-20 -21 -48 -33t-63 -12q-47 0 -81 20t-52 53q-11 20 -15 46t-4 57v167q0 31 4 57t15 46
q18 33 52 53t81 20q35 0 63.5 -12t48 -33.5t30 -50.5t10.5 -62v-140h-202zM221 688h90v-102h-90v102zM59 688h90v-102h-90v102z" />
    <glyph glyph-name="igrave" unicode="&#xec;" 
d="M42 507h102v-507h-102v507zM158 574h-66l-132 141h108z" />
    <glyph glyph-name="iacute" unicode="&#xed;" 
d="M42 507h102v-507h-102v507zM118 715h108l-132 -141h-66z" />
    <glyph glyph-name="icircumflex" unicode="&#xee;" 
d="M42 507h102v-507h-102v507zM46 715h94l98 -141h-78l-67 95l-67 -95h-78z" />
    <glyph glyph-name="idieresis" unicode="&#xef;" 
d="M42 507h102v-507h-102v507zM129 688h90v-102h-90v102zM-33 688h90v-102h-90v102z" />
    <glyph glyph-name="eth" unicode="&#xf0;" horiz-adv-x="370" 
d="M155 640q-29 24 -77 43l83 44q46 -16 80 -47l68 32l28 -40l-63 -29q19 -25 31 -53.5t19 -59.5t10 -62t3 -60v-238q0 -31 -4 -57t-15 -46q-18 -33 -52 -53t-81 -20t-81 20t-52 53q-11 20 -15 46t-4 57v167q0 31 4 57t15 46q18 33 52 53t81 20q14 0 27 -6.5t21 -16.5l2 2
q-8 35 -19 62.5t-28 48.5l-74 -35l-28 40zM135 154q0 -29 13.5 -43.5t36.5 -14.5t36.5 14.5t13.5 43.5v199q0 29 -13.5 43.5t-36.5 14.5t-36.5 -14.5t-13.5 -43.5v-199z" />
    <glyph glyph-name="ntilde" unicode="&#xf1;" horiz-adv-x="389" 
d="M42 507h102v-49h2q16 24 38.5 39.5t57.5 15.5q19 0 38 -6.5t34 -21.5t24 -38.5t9 -57.5v-389h-102v351q0 28 -13 44t-37 16q-29 0 -40 -18t-11 -52v-341h-102v507zM365 699q-5 -23 -12 -43t-19 -35t-29 -24t-41 -9q-12 0 -32.5 6t-42.5 13.5l-41 14t-28 6.5
q-21 0 -32 -12.5t-12 -32.5h-51q4 23 11.5 43t19.5 35t29 24t41 9q12 0 32.5 -6.5l42.5 -14t41.5 -13.5t27.5 -6q21 0 32 12.5t12 32.5h51z" />
    <glyph glyph-name="ograve" unicode="&#xf2;" horiz-adv-x="370" 
d="M135 154q0 -29 13.5 -43.5t36.5 -14.5t36.5 14.5t13.5 43.5v199q0 29 -13.5 43.5t-36.5 14.5t-36.5 -14.5t-13.5 -43.5v-199zM33 337q0 31 4 57t15 46q18 33 52 53t81 20t81 -20t52 -53q11 -20 15 -46t4 -57v-167q0 -31 -4 -57t-15 -46q-18 -33 -52 -53t-81 -20t-81 20
t-52 53q-11 20 -15 46t-4 57v167zM250 574h-66l-132 141h108z" />
    <glyph glyph-name="oacute" unicode="&#xf3;" horiz-adv-x="370" 
d="M135 154q0 -29 13.5 -43.5t36.5 -14.5t36.5 14.5t13.5 43.5v199q0 29 -13.5 43.5t-36.5 14.5t-36.5 -14.5t-13.5 -43.5v-199zM33 337q0 31 4 57t15 46q18 33 52 53t81 20t81 -20t52 -53q11 -20 15 -46t4 -57v-167q0 -31 -4 -57t-15 -46q-18 -33 -52 -53t-81 -20t-81 20
t-52 53q-11 20 -15 46t-4 57v167zM210 715h108l-132 -141h-66z" />
    <glyph glyph-name="ocircumflex" unicode="&#xf4;" horiz-adv-x="370" 
d="M135 154q0 -29 13.5 -43.5t36.5 -14.5t36.5 14.5t13.5 43.5v199q0 29 -13.5 43.5t-36.5 14.5t-36.5 -14.5t-13.5 -43.5v-199zM33 337q0 31 4 57t15 46q18 33 52 53t81 20t81 -20t52 -53q11 -20 15 -46t4 -57v-167q0 -31 -4 -57t-15 -46q-18 -33 -52 -53t-81 -20t-81 20
t-52 53q-11 20 -15 46t-4 57v167zM138 715h94l98 -141h-78l-67 95l-67 -95h-78z" />
    <glyph glyph-name="otilde" unicode="&#xf5;" horiz-adv-x="370" 
d="M135 154q0 -29 13.5 -43.5t36.5 -14.5t36.5 14.5t13.5 43.5v199q0 29 -13.5 43.5t-36.5 14.5t-36.5 -14.5t-13.5 -43.5v-199zM33 337q0 31 4 57t15 46q18 33 52 53t81 20t81 -20t52 -53q11 -20 15 -46t4 -57v-167q0 -31 -4 -57t-15 -46q-18 -33 -52 -53t-81 -20t-81 20
t-52 53q-11 20 -15 46t-4 57v167zM355 699q-5 -23 -12 -43t-19 -35t-29 -24t-41 -9q-12 0 -32.5 6t-42.5 13.5l-41 14t-28 6.5q-21 0 -32 -12.5t-12 -32.5h-51q4 23 11.5 43t19.5 35t29 24t41 9q12 0 32.5 -6.5l42.5 -14t41.5 -13.5t27.5 -6q21 0 32 12.5t12 32.5h51z" />
    <glyph glyph-name="odieresis" unicode="&#xf6;" horiz-adv-x="370" 
d="M135 154q0 -29 13.5 -43.5t36.5 -14.5t36.5 14.5t13.5 43.5v199q0 29 -13.5 43.5t-36.5 14.5t-36.5 -14.5t-13.5 -43.5v-199zM33 337q0 31 4 57t15 46q18 33 52 53t81 20t81 -20t52 -53q11 -20 15 -46t4 -57v-167q0 -31 -4 -57t-15 -46q-18 -33 -52 -53t-81 -20t-81 20
t-52 53q-11 20 -15 46t-4 57v167zM221 688h90v-102h-90v102zM59 688h90v-102h-90v102z" />
    <glyph glyph-name="divide" unicode="&#xf7;" horiz-adv-x="600" 
d="M236 460q0 26 19 45t45 19t45 -19t19 -45t-19 -45t-45 -19t-45 19t-19 45zM236 46q0 26 19 45t45 19t45 -19t19 -45t-19 -45t-45 -19t-45 19t-19 45zM47 293h506v-80h-506v80z" />
    <glyph glyph-name="oslash" unicode="&#xf8;" horiz-adv-x="370" 
d="M53 71q-20 40 -20 87v191q0 36 10.5 66t30 51.5t48 34t63.5 12.5q66 0 106 -42l41 69l34 -21l-49 -83q20 -40 20 -87v-191q0 -36 -10.5 -66t-30 -51.5t-48 -34t-63.5 -12.5q-66 0 -106 42l-41 -69l-34 21zM138 135q6 -39 47 -39q23 0 36.5 14.5t13.5 43.5v144h-2z
M232 372q-6 39 -47 39q-23 0 -36.5 -14.5t-13.5 -43.5v-144h2z" />
    <glyph glyph-name="ugrave" unicode="&#xf9;" horiz-adv-x="389" 
d="M347 0h-102v49h-2q-16 -24 -38.5 -39.5t-57.5 -15.5q-19 0 -38 6.5t-34 21.5t-24 38.5t-9 57.5v389h102v-351q0 -28 13 -44t37 -16q29 0 40 18t11 52v341h102v-507zM260 574h-66l-132 141h108z" />
    <glyph glyph-name="uacute" unicode="&#xfa;" horiz-adv-x="389" 
d="M347 0h-102v49h-2q-16 -24 -38.5 -39.5t-57.5 -15.5q-19 0 -38 6.5t-34 21.5t-24 38.5t-9 57.5v389h102v-351q0 -28 13 -44t37 -16q29 0 40 18t11 52v341h102v-507zM220 715h108l-132 -141h-66z" />
    <glyph glyph-name="ucircumflex" unicode="&#xfb;" horiz-adv-x="389" 
d="M347 0h-102v49h-2q-16 -24 -38.5 -39.5t-57.5 -15.5q-19 0 -38 6.5t-34 21.5t-24 38.5t-9 57.5v389h102v-351q0 -28 13 -44t37 -16q29 0 40 18t11 52v341h102v-507zM148 715h94l98 -141h-78l-67 95l-67 -95h-78z" />
    <glyph glyph-name="udieresis" unicode="&#xfc;" horiz-adv-x="389" 
d="M347 0h-102v49h-2q-16 -24 -38.5 -39.5t-57.5 -15.5q-19 0 -38 6.5t-34 21.5t-24 38.5t-9 57.5v389h102v-351q0 -28 13 -44t37 -16q29 0 40 18t11 52v341h102v-507zM231 688h90v-102h-90v102zM69 688h90v-102h-90v102z" />
    <glyph glyph-name="yacute" unicode="&#xfd;" horiz-adv-x="352" 
d="M107 507l70 -316h2l69 316h105l-146 -595q-8 -34 -22.5 -56.5t-33.5 -36t-40.5 -19t-44.5 -5.5h-28v96h23q15 0 26 4t19.5 17.5t15.5 40t16 70.5l-139 484h108zM201 715h108l-132 -141h-66z" />
    <glyph glyph-name="thorn" unicode="&#xfe;" horiz-adv-x="389" 
d="M245 342q0 31 -12 50t-38 19q-23 0 -37 -17.5t-14 -45.5v-197q0 -24 14.5 -39.5t36.5 -15.5q29 0 39.5 18t10.5 42v186zM42 712h102v-251q19 22 39 37t58 15q63 0 89 -48q9 -17 13 -42t4 -67v-193q0 -55 -3 -81t-13 -42q-13 -20 -33.5 -33t-57.5 -13q-30 0 -53.5 13.5
t-40.5 38.5h-2v-251h-102v917z" />
    <glyph glyph-name="ydieresis" unicode="&#xff;" horiz-adv-x="352" 
d="M107 507l70 -316h2l69 316h105l-146 -595q-8 -34 -22.5 -56.5t-33.5 -36t-40.5 -19t-44.5 -5.5h-28v96h23q15 0 26 4t19.5 17.5t15.5 40t16 70.5l-139 484h108zM212 688h90v-102h-90v102zM50 688h90v-102h-90v102z" />
    <glyph glyph-name="dotlessi" unicode="&#x131;" 
d="M42 507h102v-507h-102v507z" />
    <glyph glyph-name="Lslash" unicode="&#x141;" horiz-adv-x="370" 
d="M48 265l-48 -38v90l48 38v357h102v-277l120 96v-90l-120 -96v-243h202v-102h-304v265z" />
    <glyph glyph-name="lslash" unicode="&#x142;" 
d="M36 308l-50 -44v72l50 44v332h102v-242l50 43v-72l-50 -43v-255q0 -29 10.5 -39.5t39.5 -13.5v-96q-35 0 -63.5 5.5t-48 21t-30 43.5t-10.5 72v172z" />
    <glyph glyph-name="OE" unicode="&#x152;" horiz-adv-x="610" 
d="M592 616h-202v-209h176v-96h-176v-209h202v-102h-304v34h-2q-13 -17 -36.5 -28.5t-48.5 -11.5q-36 0 -64.5 13.5t-48 37t-30 54t-10.5 64.5v386q0 34 10.5 64.5t30 53.5t48 37t64.5 14q33 0 53.5 -12.5t31.5 -29.5h2v36h304v-96zM288 554q0 30 -18.5 52t-50.5 22
t-50.5 -22t-18.5 -52v-396q0 -30 18.5 -52t50.5 -22t50.5 22t18.5 52v396z" />
    <glyph glyph-name="oe" unicode="&#x153;" horiz-adv-x="572" 
d="M135 154q0 -29 13.5 -43.5t36.5 -14.5t36.5 14.5t13.5 43.5v199q0 29 -13.5 43.5t-36.5 14.5t-36.5 -14.5t-13.5 -43.5v-199zM337 295h100v58q0 29 -13.5 43.5t-36.5 14.5t-36.5 -14.5t-13.5 -43.5v-58zM33 337q0 31 4 57t15 46q18 33 52 53t81 20q32 0 58 -10t43 -24
q20 17 46 25.5t55 8.5q35 0 63.5 -12t48 -33.5t30 -50.5t10.5 -62v-140h-202v-69q0 -24 13.5 -37t36.5 -13q29 0 38.5 17t11.5 34h102q0 -32 -10.5 -60t-30.5 -48q-20 -21 -48 -33t-63 -12q-28 0 -58 8.5t-47 26.5q-17 -16 -42.5 -25.5t-54.5 -9.5q-47 0 -81 20t-52 53
q-11 20 -15 46t-4 57v167z" />
    <glyph glyph-name="Scaron" unicode="&#x160;" horiz-adv-x="406" 
d="M378 507h-102v23q0 35 -16.5 60.5t-55.5 25.5q-21 0 -34.5 -8t-21 -20.5t-10.5 -29t-3 -34.5q0 -21 1.5 -35.5t7.5 -25t17.5 -18.5t31.5 -16l78 -31q34 -13 55 -30.5t32.5 -41t15.5 -54t4 -69.5q0 -45 -9 -83.5t-29.5 -66t-54.5 -43.5t-83 -16q-37 0 -69 13t-55 35.5
t-36.5 53.5t-13.5 67v38h102v-32q0 -28 16.5 -50.5t55.5 -22.5q26 0 40.5 7.5t22 21t9.5 33.5t2 44q0 28 -2 46t-8.5 29t-18 18t-30.5 15l-73 30q-66 27 -88.5 71.5t-22.5 111.5q0 40 11 76t32.5 62t54.5 41.5t77 15.5q38 0 69.5 -14t54 -37t34.5 -51.5t12 -58.5v-50z
M250 744h-94l-98 141h78l67 -95l67 95h78z" />
    <glyph glyph-name="scaron" unicode="&#x161;" horiz-adv-x="352" 
d="M227 365q-1 26 -16.5 39t-35.5 13q-24 0 -37 -15.5t-13 -35.5q0 -14 7 -27.5t36 -24.5l60 -24q57 -22 78.5 -60t21.5 -83q0 -32 -11.5 -59.5t-31.5 -48.5t-48 -33t-61 -12q-30 0 -57 10t-47.5 29t-33.5 47.5t-14 66.5h96q3 -21 14.5 -39t40.5 -18q22 0 39.5 14.5
t17.5 40.5q0 21 -11 36t-40 26l-49 18q-48 18 -75.5 53.5t-27.5 86.5q0 32 12 59.5t32.5 47t47.5 30.5t58 11t57.5 -11.5t45.5 -31t30 -47t11 -58.5h-96zM223 574h-94l-98 141h78l67 -95l67 95h78z" />
    <glyph glyph-name="Ydieresis" unicode="&#x178;" horiz-adv-x="388" 
d="M143 301l-140 411h108l82 -283h2l82 283h108l-140 -411v-301h-102v301zM230 858h90v-102h-90v102zM68 858h90v-102h-90v102z" />
    <glyph glyph-name="Zcaron" unicode="&#x17d;" horiz-adv-x="333" 
d="M15 90l192 526h-182v96h293v-81l-196 -535h196v-96h-303v90zM214 744h-94l-98 141h78l67 -95l67 95h78z" />
    <glyph glyph-name="zcaron" unicode="&#x17e;" horiz-adv-x="315" 
d="M17 81l165 336h-152v90h268v-81l-165 -330h165v-96h-281v81zM205 574h-94l-98 141h78l67 -95l67 95h78z" />
    <glyph glyph-name="florin" unicode="&#x192;" horiz-adv-x="372" 
d="M56 451h84l23 128q8 43 21.5 70t31.5 42.5t40 21t46 5.5q14 0 29 -1t35 -3l-14 -92l-19.5 4t-19.5 2q-26 0 -39 -15.5t-20 -58.5l-18 -103h77l-13 -80h-78l-71 -398q-7 -38 -17.5 -70.5t-28.5 -55.5t-45 -36t-67 -13q-17 0 -28.5 2t-24.5 6l11 94q18 -6 40 -6q26 0 40 16
t19 44l75 417h-80z" />
    <glyph glyph-name="circumflex" unicode="&#x2c6;" 
d="M46 715h94l98 -141h-78l-67 95l-67 -95h-78z" />
    <glyph glyph-name="caron" unicode="&#x2c7;" 
d="M140 574h-94l-98 141h78l67 -95l67 95h78z" />
    <glyph glyph-name="breve" unicode="&#x2d8;" 
d="M247 715q-21 -136 -154 -136t-154 136h51q2 -14 7.5 -27.5t17.5 -24.5t31 -17.5t47 -6.5t47 6.5t31 17.5t17.5 24.5t7.5 27.5h51z" />
    <glyph glyph-name="dotaccent" unicode="&#x2d9;" 
d="M48 688h90v-102h-90v102z" />
    <glyph glyph-name="ring" unicode="&#x2da;" 
d="M32 660q0 -26 17.5 -43.5t43.5 -17.5t43.5 17.5t17.5 43.5t-17.5 43.5t-43.5 17.5t-43.5 -17.5t-17.5 -43.5zM-9 660q0 21 8 39.5t22 32.5t32.5 22t39.5 8t39.5 -8t32.5 -22t22 -32.5t8 -39.5t-8 -39.5t-22 -32.5t-32.5 -22t-39.5 -8t-39.5 8t-32.5 22t-22 32.5t-8 39.5z
" />
    <glyph glyph-name="ogonek" unicode="&#x2db;" 
d="M195 -202q-15 -8 -39.5 -15t-57.5 -7q-42 0 -70.5 24.5t-28.5 66.5q0 24 7 43t20 34.5t29.5 28.5t36.5 27h51q-30 -29 -47 -62t-17 -64q0 -24 14.5 -38t34.5 -14q17 0 29.5 3.5t23.5 9.5z" />
    <glyph glyph-name="tilde" unicode="&#x2dc;" 
d="M263 699q-5 -23 -12 -43t-19 -35t-29 -24t-41 -9q-12 0 -32.5 6t-42.5 13.5l-41 14t-28 6.5q-21 0 -32 -12.5t-12 -32.5h-51q4 23 11.5 43t19.5 35t29 24t41 9q12 0 32.5 -6.5l42.5 -14t41.5 -13.5t27.5 -6q21 0 32 12.5t12 32.5h51z" />
    <glyph glyph-name="hungarumlaut" unicode="&#x2dd;" 
d="M198 715h108l-132 -141h-66zM36 715h108l-132 -141h-66z" />
    <glyph glyph-name="uni0401" unicode="&#x401;" horiz-adv-x="392" 
d="M231 858h90v-102h-90v102zM69 858h90v-102h-90v102zM48 712h304v-96h-202v-209h176v-96h-176v-209h202v-102h-304v712z" />
    <glyph glyph-name="uni0402" unicode="&#x402;" horiz-adv-x="426" 
d="M378 158q0 -35 -13 -65t-35.5 -52.5t-52.5 -35.5t-64 -13v102q27 0 45 18t18 56v163q0 38 -18 56t-45 18q-35 0 -63 -12v-393h-102v712h284v-96h-182v-121q28 12 63 12q34 0 64 -13t52.5 -35.5t35.5 -52.5t13 -65v-183z" />
    <glyph glyph-name="uni0403" unicode="&#x403;" horiz-adv-x="358" 
d="M220 885h108l-132 -141h-66zM48 712h304v-96h-202v-616h-102v712z" />
    <glyph glyph-name="uni0404" unicode="&#x404;" horiz-adv-x="407" 
d="M144 169q0 -31 13.5 -52t48.5 -21q10 0 21.5 3.5t21 11.5t15.5 22t6 35v35h102v-44q0 -33 -12.5 -63t-34.5 -52.5t-51.5 -36t-63.5 -13.5q-29 0 -59 8t-54 27.5t-39.5 51.5t-15.5 81v392q0 35 12 65t34 52t52.5 34.5t67.5 12.5q35 0 65 -12.5t52 -35t34.5 -54t12.5 -68.5
v-40h-102v34q0 30 -17 52t-46 22q-38 0 -50.5 -23.5t-12.5 -59.5v-126h176v-96h-176v-142z" />
    <glyph glyph-name="uni0405" unicode="&#x405;" horiz-adv-x="406" 
d="M378 507h-102v23q0 35 -16.5 60.5t-55.5 25.5q-21 0 -34.5 -8t-21 -20.5t-10.5 -29t-3 -34.5q0 -21 1.5 -35.5t7.5 -25t17.5 -18.5t31.5 -16l78 -31q34 -13 55 -30.5t32.5 -41t15.5 -54t4 -69.5q0 -45 -9 -83.5t-29.5 -66t-54.5 -43.5t-83 -16q-37 0 -69 13t-55 35.5
t-36.5 53.5t-13.5 67v38h102v-32q0 -28 16.5 -50.5t55.5 -22.5q26 0 40.5 7.5t22 21t9.5 33.5t2 44q0 28 -2 46t-8.5 29t-18 18t-30.5 15l-73 30q-66 27 -88.5 71.5t-22.5 111.5q0 40 11 76t32.5 62t54.5 41.5t77 15.5q38 0 69.5 -14t54 -37t34.5 -51.5t12 -58.5v-50z" />
    <glyph glyph-name="uni0406" unicode="&#x406;" horiz-adv-x="204" 
d="M51 712h102v-712h-102v712z" />
    <glyph glyph-name="uni0407" unicode="&#x407;" horiz-adv-x="204" 
d="M138 858h90v-102h-90v102zM-24 858h90v-102h-90v102zM51 712h102v-712h-102v712z" />
    <glyph glyph-name="uni0408" unicode="&#x408;" horiz-adv-x="333" 
d="M285 168q0 -35 -12 -66.5t-34.5 -55.5t-54.5 -38t-73 -14q-49 0 -81.5 21.5t-51.5 42.5l80 64q11 -11 25.5 -18.5t30.5 -7.5q9 0 21 3.5t22.5 13t18 26t7.5 43.5v530h102v-544z" />
    <glyph glyph-name="uni0409" unicode="&#x409;" horiz-adv-x="578" 
d="M311 420h55q100 0 145.5 -50t45.5 -144v-32q0 -94 -44.5 -144t-136.5 -50h-73l-99 507h-2l-98 -507h-102l159 712h85zM383 102q25 0 40.5 8t23.5 22t11 34t3 44t-3 44.5t-12 36t-26.5 24t-46.5 8.5h-39z" />
    <glyph glyph-name="uni040A" unicode="&#x40a;" horiz-adv-x="587" 
d="M266 318h-116v-318h-102v712h102v-292h116v292h102v-292q106 0 151 -50.5t45 -143.5v-32q0 -93 -45 -143.5t-151 -50.5h-102v318zM380 102q29 0 46.5 8t26.5 22t12 34t3 44t-3 44t-12 34t-26.5 22t-46.5 8h-12v-216h12z" />
    <glyph glyph-name="uni040B" unicode="&#x40b;" horiz-adv-x="426" 
d="M150 616v-121q28 12 63 12q34 0 64 -13t52.5 -35.5t35.5 -52.5t13 -65v-341h-102v331q0 38 -18 56t-45 18q-35 0 -63 -12v-393h-102v712h284v-96h-182z" />
    <glyph glyph-name="uni040C" unicode="&#x40c;" horiz-adv-x="436" 
d="M220 885h108l-132 -141h-66zM152 403l165 309h105l-191 -356l201 -356h-115l-165 309h-2v-309h-102v712h102v-309h2z" />
    <glyph glyph-name="uni040E" unicode="&#x40e;" horiz-adv-x="426" 
d="M368 882q-2 -41 -15 -69t-34 -45t-48.5 -24.5t-56.5 -7.5t-56.5 7.5t-48.5 24.5t-34.5 45t-14.5 69h51q2 -14 7.5 -27.5t17.5 -24.5t31 -17.5t47 -6.5t47 6.5t31 17.5t17.5 24.5t7.5 27.5h51zM276 368q-29 -12 -63 -12q-27 0 -45 18t-18 56v282h-102v-292q0 -35 13 -65
t35.5 -52.5t52.5 -35.5t64 -13t63 12v-97q0 -31 -13.5 -52t-48.5 -21q-11 0 -22 3.5t-20.5 11.5t-15.5 22t-6 35v35h-102v-44q0 -33 12.5 -63t34.5 -52.5t51.5 -36t63.5 -13.5q29 0 59 8t54 27.5t39.5 51.5t15.5 81v550h-102v-344z" />
    <glyph glyph-name="uni040F" unicode="&#x40f;" horiz-adv-x="426" 
d="M48 712h102v-562h126v562h102v-652h-114v-60h-102v60h-114v652z" />
    <glyph glyph-name="uni0410" unicode="&#x410;" horiz-adv-x="407" 
d="M161 712h85l159 -712h-102l-30 153h-139l-30 -153h-102zM204 507h-2l-50 -258h102z" />
    <glyph glyph-name="uni0411" unicode="&#x411;" horiz-adv-x="426" 
d="M187 420q100 0 145.5 -50t45.5 -144v-32q0 -94 -45.5 -144t-145.5 -50h-139v712h304v-96h-202v-196h37zM282 210q0 24 -3 44t-12 34t-26.5 22t-46.5 8h-44v-216h44q29 0 46.5 8t26.5 22t12 34t3 44z" />
    <glyph glyph-name="uni0412" unicode="&#x412;" horiz-adv-x="426" 
d="M150 420h46q51 0 68.5 25.5t17.5 74.5q0 48 -19.5 72t-70.5 24h-42v-196zM150 102h44q31 0 48.5 9t26.5 25t11 38t2 48q0 27 -3 47t-12.5 33.5t-26.5 20.5t-45 7h-45v-228zM48 712h149q49 0 83.5 -15t56.5 -40t31.5 -57.5t9.5 -67.5v-26q0 -29 -4.5 -49t-13.5 -35
t-22 -26.5t-30 -21.5q36 -17 53 -50.5t17 -89.5v-40q0 -94 -45.5 -144t-145.5 -50h-139v712z" />
    <glyph glyph-name="uni0413" unicode="&#x413;" horiz-adv-x="358" 
d="M48 712h304v-96h-202v-616h-102v712z" />
    <glyph glyph-name="uni0414" unicode="&#x414;" horiz-adv-x="475" 
d="M31 95v2q5 1 10 3q12 3 22.5 12.5t18 26t7.5 43.5v530h308v-617h50v-240h-100v139h-222v-139h-100v240h6zM295 95v521h-104v-448q0 -35 -12 -66q-1 -4 -3 -7h119z" />
    <glyph glyph-name="uni0415" unicode="&#x415;" horiz-adv-x="392" 
d="M48 712h304v-96h-202v-209h176v-96h-176v-209h202v-102h-304v712z" />
    <glyph glyph-name="uni0416" unicode="&#x416;" horiz-adv-x="604" 
d="M250 712h102v-309h2l138 309h101l-159 -356l169 -356h-111l-138 309h-2v-309h-102v309h-2l-138 -309h-111l169 356l-159 356h101l138 -309h2v309z" />
    <glyph glyph-name="uni0417" unicode="&#x417;" horiz-adv-x="407" 
d="M161 389l9 16h83q2 -1 5 -1q12 30 12 60v76q0 31 -13.5 52t-48.5 21q-11 0 -22 -3.5t-20.5 -11.5t-15.5 -22t-6 -35v-35h-102v44q0 33 12.5 63t34.5 52.5t51.5 36t63.5 13.5q29 0 59 -8t54 -27.5t39.5 -51.5t15.5 -81v-90q0 -39 -55 -80q-28 -7 28 -23q10 -15 17 -35
q10 -28 10 -67v-90q0 -49 -15.5 -81t-39.5 -51.5t-54 -27.5t-59 -8q-34 0 -63.5 13.5t-51.5 36t-34.5 52.5t-12.5 63v44h102v-35q0 -21 6 -35t15.5 -22t20.5 -11.5t22 -3.5q35 0 48.5 21t13.5 52v101q0 30 -12 50q-3 0 -5 -1h-83l-9 16v54z" />
    <glyph glyph-name="uni0418" unicode="&#x418;" horiz-adv-x="444" 
d="M400 0h-102v428h-2l-156 -428h-96v712h102v-429h2l154 429h98v-712z" />
    <glyph glyph-name="uni0419" unicode="&#x419;" horiz-adv-x="444" 
d="M376 882q-2 -41 -15 -69t-34 -45t-48.5 -24.5t-56.5 -7.5t-56.5 7.5t-48.5 24.5t-34.5 45t-14.5 69h51q2 -14 7.5 -27.5t17.5 -24.5t31 -17.5t47 -6.5t47 6.5t31 17.5t17.5 24.5t7.5 27.5h51zM400 712h-98l-154 -429h-2v429h-102v-712h96l156 428h2v-428h102v712z" />
    <glyph glyph-name="uni041A" unicode="&#x41a;" horiz-adv-x="436" 
d="M152 403l165 309h105l-191 -356l201 -356h-115l-165 309h-2v-309h-102v712h102v-309h2z" />
    <glyph glyph-name="uni041B" unicode="&#x41b;" horiz-adv-x="425" 
d="M191 616v-448q0 -35 -12 -66.5t-34.5 -55.5t-54.5 -38q-26 -12 -59 -14v103q5 1 10 3q12 3 22.5 12.5t18 26t7.5 43.5v530h308v-712h-102v616h-104z" />
    <glyph glyph-name="uni041C" unicode="&#x41c;" horiz-adv-x="556" 
d="M48 712h98l131 -377h2l130 377h99v-712h-102v433h-2l-101 -306h-51l-100 306h-2v-433h-102v712z" />
    <glyph glyph-name="uni041D" unicode="&#x41d;" horiz-adv-x="426" 
d="M48 712h102v-305h126v305h102v-712h-102v317h-126v-317h-102v712z" />
    <glyph glyph-name="uni041E" unicode="&#x41e;" horiz-adv-x="426" 
d="M144 168q0 -37 20.5 -54.5t48.5 -17.5t48.5 17.5t20.5 54.5v376q0 37 -20.5 54.5t-48.5 17.5t-48.5 -17.5t-20.5 -54.5v-376zM42 544q0 43 15 76t39.5 54.5t55 32.5t61.5 11t61.5 -11t55 -32.5t39.5 -54.5t15 -76v-376q0 -44 -15 -76.5t-39.5 -54t-55 -32.5t-61.5 -11
t-61.5 11t-55 32.5t-39.5 54t-15 76.5v376z" />
    <glyph glyph-name="uni041F" unicode="&#x41f;" horiz-adv-x="426" 
d="M48 712h330v-712h-102v622h-126v-622h-102v712z" />
    <glyph glyph-name="uni0420" unicode="&#x420;" horiz-adv-x="407" 
d="M150 374h49q31 0 48 9t25 24.5t9.5 37.5t1.5 49q0 25 -1.5 47.5t-9 39t-23.5 26t-46 9.5h-53v-242zM48 712h153q42 0 74 -11t58 -39t36 -65.5t10 -101.5q0 -47 -5.5 -80.5t-23.5 -62.5q-21 -35 -56 -54.5t-92 -19.5h-52v-278h-102v712z" />
    <glyph glyph-name="uni0421" unicode="&#x421;" horiz-adv-x="407" 
d="M372 159q0 -33 -12.5 -63t-34.5 -52.5t-51.5 -36t-63.5 -13.5q-29 0 -59 8t-54 27.5t-39.5 51.5t-15.5 81v392q0 35 12 65t34 52t52.5 34.5t67.5 12.5q35 0 65 -12.5t52 -35t34.5 -54t12.5 -68.5v-40h-102v34q0 30 -17 52t-46 22q-38 0 -50.5 -23.5t-12.5 -59.5v-364
q0 -31 13.5 -52t48.5 -21q10 0 21.5 3.5t21 11.5t15.5 22t6 35v35h102v-44z" />
    <glyph glyph-name="uni0422" unicode="&#x422;" horiz-adv-x="332" 
d="M115 616h-118v96h338v-96h-118v-616h-102v616z" />
    <glyph glyph-name="uni0423" unicode="&#x423;" horiz-adv-x="388" 
d="M143 224l-140 488h108l82 -360h2l82 360h108l-196 -712h-102z" />
    <glyph glyph-name="uni0424" unicode="&#x424;" horiz-adv-x="584" 
d="M240 154h-21q-57 0 -92 19.5t-56 54.5q-18 29 -23.5 62.5t-5.5 80.5q0 64 10 101.5t36 65.5t58 39t74 11h20v124h103v-124h30q42 0 74 -11t58 -39t36 -65.5t10 -101.5q0 -47 -5.5 -80.5t-23.5 -62.5q-21 -35 -56 -54.5t-92 -19.5h-31v-154h-103v154zM343 492v-242h28
q31 0 48 9t25 24.5t9.5 37.5t1.5 49q0 25 -1.5 47.5t-9 39t-23.5 26t-46 9.5h-32zM240 250v242h-22q-30 0 -46 -9.5t-23.5 -26t-9 -39t-1.5 -47.5q0 -27 1.5 -49t9.5 -37.5t25 -24.5t48 -9h18z" />
    <glyph glyph-name="uni0425" unicode="&#x425;" horiz-adv-x="389" 
d="M142 373l-133 339h108l77 -211l78 211h108l-136 -339l147 -373h-108l-89 240l-88 -240h-108z" />
    <glyph glyph-name="uni0426" unicode="&#x426;" horiz-adv-x="481" 
d="M378 105h62v-211h-102v106h-290v712h102v-614h126v614h102v-607z" />
    <glyph glyph-name="uni0427" unicode="&#x427;" horiz-adv-x="426" 
d="M213 356q34 0 63 12v344h102v-712h-102v266q-29 -12 -63 -12t-64 13t-52.5 35.5t-35.5 52.5t-13 65v292h102v-282q0 -38 18 -56t45 -18z" />
    <glyph glyph-name="uni0428" unicode="&#x428;" horiz-adv-x="608" 
d="M566 0h-518v712h102v-622h106v622h102v-622h106v622h102v-712z" />
    <glyph glyph-name="uni0429" unicode="&#x429;" horiz-adv-x="670" 
d="M553 0h-505v712h102v-622h106v622h102v-622h106v622h102v-612h76v-211h-89v111z" />
    <glyph glyph-name="uni042A" unicode="&#x42a;" horiz-adv-x="426" 
d="M207 420q100 0 145.5 -50t45.5 -144v-32q0 -94 -45.5 -144t-145.5 -50h-139v616h-67v96h169v-292h37zM302 210q0 24 -3 44t-12 34t-26.5 22t-46.5 8h-44v-216h44q29 0 46.5 8t26.5 22t12 34t3 44z" />
    <glyph glyph-name="uni042B" unicode="&#x42b;" horiz-adv-x="580" 
d="M436 712h102v-712h-102v712zM187 420q100 0 145.5 -50t45.5 -144v-32q0 -94 -45.5 -144t-145.5 -50h-139v712h102v-292h37zM282 210q0 24 -3 44t-12 34t-26.5 22t-46.5 8h-44v-216h44q29 0 46.5 8t26.5 22t12 34t3 44z" />
    <glyph glyph-name="uni042C" unicode="&#x42c;" horiz-adv-x="426" 
d="M187 420q100 0 145.5 -50t45.5 -144v-32q0 -94 -45.5 -144t-145.5 -50h-139v712h102v-292h37zM282 210q0 24 -3 44t-12 34t-26.5 22t-46.5 8h-44v-216h44q29 0 46.5 8t26.5 22t12 34t3 44z" />
    <glyph glyph-name="uni042D" unicode="&#x42d;" horiz-adv-x="407" 
d="M270 311h-122v96h122v126q0 36 -12.5 59.5t-50.5 23.5q-29 0 -46 -22t-17 -52v-34h-102v40q0 37 12.5 68.5t34.5 54t52 35t65 12.5q37 0 67.5 -12.5t52.5 -34.5t34 -52t12 -65v-392q0 -49 -15.5 -81t-39.5 -51.5t-54 -27.5t-59 -8q-34 0 -63.5 13.5t-51.5 36t-34.5 52.5
t-12.5 63v44h102v-35q0 -21 6 -35t15.5 -22t20.5 -11.5t22 -3.5q35 0 48.5 21t13.5 52v142z" />
    <glyph glyph-name="uni042E" unicode="&#x42e;" horiz-adv-x="598" 
d="M316 168q0 -37 20.5 -54.5t48.5 -17.5t48.5 17.5t20.5 54.5v376q0 37 -20.5 54.5t-48.5 17.5t-48.5 -17.5t-20.5 -54.5v-376zM214 317h-61v-317h-102v712h102v-305h61v137q0 43 15 76t39.5 54.5t55 32.5t61.5 11t61.5 -11t55 -32.5t39.5 -54.5t15 -76v-376
q0 -44 -15 -76.5t-39.5 -54t-55 -32.5t-61.5 -11t-61.5 11t-55 32.5t-39.5 54t-15 76.5v149z" />
    <glyph glyph-name="uni042F" unicode="&#x42f;" horiz-adv-x="426" 
d="M279 616h-53q-28 0 -45 -7t-26.5 -21.5t-12.5 -35t-3 -47.5t3 -47.5t11.5 -34.5t24.5 -21.5t43 -7.5h58v222zM381 0h-102v304h-61l-95 -304h-108l110 325q-49 27 -68.5 71.5t-19.5 106.5q0 209 180 209h164v-712z" />
    <glyph glyph-name="uni0430" unicode="&#x430;" horiz-adv-x="382" 
d="M240 218q-17 3 -28 3q-33 0 -56.5 -15.5t-23.5 -56.5q0 -29 14 -47t39 -18q26 0 40.5 17t14.5 48v69zM240 52h-2q-20 -28 -40.5 -43t-57.5 -15q-18 0 -37 5.5t-35.5 20t-27 41t-10.5 68.5q0 43 7 75.5t25.5 54t49.5 32t79 10.5q11 0 22 -1t27 -2v53q0 26 -11 43t-40 17
q-20 0 -36.5 -13t-21.5 -38h-99q5 69 46 110q20 20 48 31.5t63 11.5q32 0 60 -10t48.5 -30t32.5 -50t12 -70v-353h-102v52z" />
    <glyph glyph-name="uni0431" unicode="&#x431;" horiz-adv-x="384" 
d="M143 461h2q17 25 40 38.5t53 13.5q37 0 57.5 -13t33.5 -33q10 -16 13 -42t3 -81v-174q0 -31 -4 -57t-15 -46q-18 -33 -52 -53t-81 -20t-81 20t-52 53q-11 20 -15 46t-4 57v366q0 31 4 57t15 46q18 33 52 53t81 20h112v-99h-112q-23 0 -36.5 -15t-13.5 -44v-93zM143 154
q0 -29 13.5 -43.5t36.5 -14.5t36.5 14.5t13.5 43.5v199q0 29 -13.5 43.5t-36.5 14.5t-36.5 -14.5t-13.5 -43.5v-199z" />
    <glyph glyph-name="uni0432" unicode="&#x432;" horiz-adv-x="386" 
d="M48 0v507h153q32 0 59.5 -10t48 -29t32.5 -45.5t12 -59.5t-18 -64t-52 -45q34 -14 52 -45.5t18 -64.5t-12 -59.5t-32.5 -45.5t-48 -29t-59.5 -10h-153zM201 301q21 0 35.5 17t14.5 41t-14.5 41t-35.5 17h-51v-116h51zM201 96q21 0 35.5 17t14.5 41t-14.5 41t-35.5 17h-51
v-116h51z" />
    <glyph glyph-name="uni0433" unicode="&#x433;" horiz-adv-x="309" 
d="M144 417v-417h-102v507h264v-90h-162z" />
    <glyph glyph-name="uni0434" unicode="&#x434;" horiz-adv-x="420" 
d="M142 86h123v331h-93v-245q0 -62 -30 -86zM117 0v-104h-93v187h1v3q-1 0 19.5 10.5t25.5 82.5v328h297v-421h31v-190h-93v104h-188z" />
    <glyph glyph-name="uni0435" unicode="&#x435;" horiz-adv-x="370" 
d="M135 295h100v58q0 29 -13.5 43.5t-36.5 14.5t-36.5 -14.5t-13.5 -43.5v-58zM135 215v-69q0 -24 13.5 -37t36.5 -13q29 0 38.5 17t11.5 34h102q0 -32 -10.5 -60t-30.5 -48q-20 -21 -48 -33t-63 -12q-47 0 -81 20t-52 53q-11 20 -15 46t-4 57v167q0 31 4 57t15 46
q18 33 52 53t81 20q35 0 63.5 -12t48 -33.5t30 -50.5t10.5 -62v-140h-202z" />
    <glyph glyph-name="uni0436" unicode="&#x436;" horiz-adv-x="568" 
d="M232 507h102v-221h2l116 221h99l-129 -253l139 -254h-109l-116 221h-2v-221h-102v221h-2l-116 -221h-109l139 254l-129 253h99l116 -221h2v221z" />
    <glyph glyph-name="uni0437" unicode="&#x437;" horiz-adv-x="378" 
d="M136 289v1h62q15 3 25 12q13 13 13 37v15q0 24 -13.5 37.5t-36.5 13.5q-29 0 -38.5 -17t-11.5 -34h-102q0 32 10.5 60t30.5 48q20 21 48 33t63 12q42 0 71 -13.5t47 -36.5t26 -53t8 -63q0 -49 -67 -82q42 -5 39 -9q3 -3 6 -7q22 -34 22 -83q0 -33 -8 -63t-26 -53
t-47 -36.5t-71 -13.5q-35 0 -63 12t-48 33q-20 20 -30.5 48t-10.5 60h102q2 -17 11.5 -34t38.5 -17q23 0 36.5 13.5t13.5 37.5v15q0 24 -13 37q-10 9 -25 12h-62v1h-1v77h1z" />
    <glyph glyph-name="uni0438" unicode="&#x438;" horiz-adv-x="407" 
d="M365 0h-102v293h-2l-117 -293h-102v507h102v-284h2l117 284h102v-507z" />
    <glyph glyph-name="uni0439" unicode="&#x439;" horiz-adv-x="407" 
d="M358 712q-2 -41 -15 -69t-34 -45t-48.5 -24.5t-56.5 -7.5t-56.5 7.5t-48.5 24.5t-34.5 45t-14.5 69h51q2 -14 7.5 -27.5t17.5 -24.5t31 -17.5t47 -6.5t47 6.5t31 17.5t17.5 24.5t7.5 27.5h51zM365 507h-102l-117 -284h-2v284h-102v-507h102l117 293h2v-293h102v507z" />
    <glyph glyph-name="uni043A" unicode="&#x43a;" horiz-adv-x="396" 
d="M232 253l159 -253h-112l-133 221h-2v-221h-102v507h102v-221h2l133 221h102z" />
    <glyph glyph-name="uni043B" unicode="&#x43b;" horiz-adv-x="398" 
d="M172 417v-276q0 -75 -47 -113t-119 -38v96q18 0 30.5 4t20 14.5t10.5 28.5t3 46v328h297v-507h-102v417h-93z" />
    <glyph glyph-name="uni043C" unicode="&#x43c;" horiz-adv-x="498" 
d="M48 507h114l90 -212h2l86 212h116v-507h-100v325h-2l-76 -211h-51l-77 211h-2v-325h-100v507z" />
    <glyph glyph-name="uni043D" unicode="&#x43d;" horiz-adv-x="389" 
d="M42 507h102v-206h101v206h102v-507h-102v211h-101v-211h-102v507z" />
    <glyph glyph-name="uni043E" unicode="&#x43e;" horiz-adv-x="370" 
d="M135 154q0 -29 13.5 -43.5t36.5 -14.5t36.5 14.5t13.5 43.5v199q0 29 -13.5 43.5t-36.5 14.5t-36.5 -14.5t-13.5 -43.5v-199zM33 337q0 31 4 57t15 46q18 33 52 53t81 20t81 -20t52 -53q11 -20 15 -46t4 -57v-167q0 -31 -4 -57t-15 -46q-18 -33 -52 -53t-81 -20t-81 20
t-52 53q-11 20 -15 46t-4 57v167z" />
    <glyph glyph-name="uni043F" unicode="&#x43f;" horiz-adv-x="389" 
d="M42 507h305v-507h-102v417h-101v-417h-102v507z" />
    <glyph glyph-name="uni0440" unicode="&#x440;" horiz-adv-x="388" 
d="M245 342q0 31 -12 50t-38 19q-23 0 -37 -17.5t-14 -45.5v-197q0 -24 14.5 -39.5t36.5 -15.5q29 0 39.5 18t10.5 42v186zM42 507h102v-46q19 22 39 37t58 15q63 0 89 -48q9 -17 13 -42t4 -67v-193q0 -55 -3 -81t-13 -42q-13 -20 -33.5 -33t-57.5 -13q-30 0 -53.5 13.5
t-40.5 38.5h-2v-251h-102v712z" />
    <glyph glyph-name="uni0441" unicode="&#x441;" horiz-adv-x="392" 
d="M150 146q0 -24 13.5 -37t36.5 -13q29 0 38.5 17t11.5 34h102q0 -32 -10.5 -60t-30.5 -48q-20 -21 -48 -33t-63 -12q-47 0 -81 20t-52 53q-11 20 -15 46t-4 57v167q0 31 4 57t15 46q18 33 52 53t81 20q35 0 63.5 -12t48 -33.5t30 -51.5t10.5 -65h-102q0 31 -13.5 45.5
t-36.5 14.5t-36.5 -14.5t-13.5 -43.5v-207z" />
    <glyph glyph-name="uni0442" unicode="&#x442;" horiz-adv-x="326" 
d="M214 417v-417h-102v417h-112v90h326v-90h-112z" />
    <glyph glyph-name="uni0443" unicode="&#x443;" horiz-adv-x="352" 
d="M107 507l70 -316h2l69 316h105l-146 -595q-8 -34 -22.5 -56.5t-33.5 -36t-40.5 -19t-44.5 -5.5h-28v96h23q15 0 26 4t19.5 17.5t15.5 40t16 70.5l-139 484h108z" />
    <glyph glyph-name="uni0444" unicode="&#x444;" horiz-adv-x="579" 
d="M243 46q-17 -25 -40.5 -38.5t-53.5 -13.5q-37 0 -57.5 13t-33.5 33q-10 16 -13 42t-3 81v193q0 42 4 67t13 42q26 48 89 48q38 0 58 -15q19 -14 37 -35v249h104v-249q18 21 37 35q20 15 58 15q63 0 89 -48q9 -17 13 -42t4 -67v-193q0 -55 -3 -81t-13 -42
q-13 -20 -33.5 -33t-57.5 -13q-30 0 -53.5 13.5t-40.5 38.5v-251h-104v251zM347 368v-234q3 -13 13 -22q14 -16 36 -16q29 0 39.5 18t10.5 42v186q0 31 -12 50t-38 19q-23 0 -37 -17q-9 -11 -12 -26zM243 134v234q-3 15 -12 26q-14 17 -37 17q-26 0 -38 -19t-12 -50v-186
q0 -24 10.5 -42t39.5 -18q22 0 37 16q9 9 12 22z" />
    <glyph glyph-name="uni0445" unicode="&#x445;" horiz-adv-x="332" 
d="M114 259l-119 248h108l63 -144l63 144h108l-121 -248l127 -259h-108l-69 155l-69 -155h-108z" />
    <glyph glyph-name="uni0446" unicode="&#x446;" horiz-adv-x="431" 
d="M347 100h50v-200h-92v100h-263v507h102v-417h101v417h102v-407z" />
    <glyph glyph-name="uni0447" unicode="&#x447;" horiz-adv-x="389" 
d="M245 507h102v-507h-102v171q-22 -7 -51 -7q-47 0 -81 20t-52 53q-11 20 -15 46t-4 57v167h102v-191q0 -24 13.5 -37t36.5 -13q29 0 51 7v234z" />
    <glyph glyph-name="uni0448" unicode="&#x448;" horiz-adv-x="552" 
d="M327 90h81v417h102v-507h-468v507h102v-417h81v417h102v-417z" />
    <glyph glyph-name="uni0449" unicode="&#x449;" horiz-adv-x="574" 
d="M568 -81h-96v81h-430v507h102v-417h81v417h102v-417h81v417h102v-417h58v-171z" />
    <glyph glyph-name="uni044A" unicode="&#x44a;" horiz-adv-x="400" 
d="M165 96h61q21 0 35.5 17t14.5 41t-14.5 41t-35.5 17h-61v-116zM63 417h-58v90h160v-206h61q32 0 59.5 -11t48 -31t32.5 -47.5t12 -60.5t-12 -60.5t-32.5 -48t-48 -31.5t-59.5 -11h-163v417z" />
    <glyph glyph-name="uni044B" unicode="&#x44b;" horiz-adv-x="546" 
d="M402 507h102v-507h-102v507zM144 96h61q21 0 35.5 17t14.5 41t-14.5 41t-35.5 17h-61v-116zM42 507h102v-206h61q32 0 59.5 -11t48 -31t32.5 -47.5t12 -60.5t-12 -60.5t-32.5 -48t-48 -31.5t-59.5 -11h-163v507z" />
    <glyph glyph-name="uni044C" unicode="&#x44c;" horiz-adv-x="378" 
d="M144 96h61q21 0 35.5 17t14.5 41t-14.5 41t-35.5 17h-61v-116zM42 507h102v-206h61q32 0 59.5 -11t48 -31t32.5 -47.5t12 -60.5t-12 -60.5t-32.5 -48t-48 -31.5t-59.5 -11h-163v507z" />
    <glyph glyph-name="uni044D" unicode="&#x44d;" horiz-adv-x="384" 
d="M242 204h-131v90h131v59q0 29 -13.5 43.5t-36.5 14.5t-36.5 -14.5t-13.5 -45.5h-102q0 35 10.5 65t30 51.5t48 33.5t63.5 12q47 0 81 -20t52 -53q11 -20 15 -46t4 -57v-167q0 -31 -4 -57t-15 -46q-18 -33 -52 -53t-81 -20q-35 0 -63 12t-48 33q-20 20 -30.5 48t-10.5 60
h102q2 -17 11.5 -34t38.5 -17q23 0 36.5 13t13.5 37v58z" />
    <glyph glyph-name="uni044E" unicode="&#x44e;" horiz-adv-x="549" 
d="M305 154q0 -29 13.5 -43.5t36.5 -14.5t36.5 14.5t13.5 43.5v199q0 29 -13.5 43.5t-36.5 14.5t-36.5 -14.5t-13.5 -43.5v-199zM203 211h-59v-211h-102v507h102v-206h59v36q0 31 4 57t15 46q18 33 52 53t81 20t81 -20t52 -53q11 -20 15 -46t4 -57v-167q0 -31 -4 -57
t-15 -46q-18 -33 -52 -53t-81 -20t-81 20t-52 53q-11 20 -15 46t-4 57v41z" />
    <glyph glyph-name="uni044F" unicode="&#x44f;" horiz-adv-x="376" 
d="M232 0v212h-30l-89 -212h-104l102 228q-37 18 -59.5 53t-22.5 82q0 33 12 59.5t32.5 45.5t48 29t59.5 10h153v-507h-102zM232 301v116h-51q-21 0 -35.5 -17t-14.5 -41t14.5 -41t35.5 -17h51z" />
    <glyph glyph-name="uni0451" unicode="&#x451;" horiz-adv-x="370" 
d="M221 688h90v-102h-90v102zM59 688h90v-102h-90v102zM135 295h100v58q0 29 -13.5 43.5t-36.5 14.5t-36.5 -14.5t-13.5 -43.5v-58zM135 215v-69q0 -24 13.5 -37t36.5 -13q29 0 38.5 17t11.5 34h102q0 -32 -10.5 -60t-30.5 -48q-20 -21 -48 -33t-63 -12q-47 0 -81 20t-52 53
q-11 20 -15 46t-4 57v167q0 31 4 57t15 46q18 33 52 53t81 20q35 0 63.5 -12t48 -33.5t30 -50.5t10.5 -62v-140h-202z" />
    <glyph glyph-name="uni0452" unicode="&#x452;" horiz-adv-x="389" 
d="M347 -54q0 -75 -47 -113t-119 -38v96q18 0 30.5 4t20 14.5t10.5 28.5t3 46v367q0 28 -13 44t-37 16q-29 0 -40 -18t-11 -52v-341h-102v557h-60v80h60v75h102v-75h106v-80h-106v-99h2q16 24 38.5 39.5t57.5 15.5q19 0 38 -6.5t34 -21.5t24 -38.5t9 -57.5v-443z" />
    <glyph glyph-name="uni0453" unicode="&#x453;" horiz-adv-x="309" 
d="M180 712h108l-132 -141h-66zM144 417v-417h-102v507h264v-90h-162z" />
    <glyph glyph-name="uni0454" unicode="&#x454;" horiz-adv-x="384" 
d="M142 146q0 -24 13.5 -37t36.5 -13q29 0 38.5 17t11.5 34h102q0 -32 -10.5 -60t-30.5 -48q-20 -21 -48 -33t-63 -12q-47 0 -81 20t-52 53q-11 20 -15 46t-4 57v167q0 31 4 57t15 46q18 33 52 53t81 20q35 0 63.5 -12t48 -33.5t30 -51.5t10.5 -65h-102q0 31 -13.5 45.5
t-36.5 14.5t-36.5 -14.5t-13.5 -43.5v-59h131v-90h-131v-58z" />
    <glyph glyph-name="uni0455" unicode="&#x455;" horiz-adv-x="352" 
d="M227 365q-1 26 -16.5 39t-35.5 13q-24 0 -37 -15.5t-13 -35.5q0 -14 7 -27.5t36 -24.5l60 -24q57 -22 78.5 -60t21.5 -83q0 -32 -11.5 -59.5t-31.5 -48.5t-48 -33t-61 -12q-30 0 -57 10t-47.5 29t-33.5 47.5t-14 66.5h96q3 -21 14.5 -39t40.5 -18q22 0 39.5 14.5
t17.5 40.5q0 21 -11 36t-40 26l-49 18q-48 18 -75.5 53.5t-27.5 86.5q0 32 12 59.5t32.5 47t47.5 30.5t58 11t57.5 -11.5t45.5 -31t30 -47t11 -58.5h-96z" />
    <glyph glyph-name="uni0456" unicode="&#x456;" 
d="M42 712h102v-102h-102v102zM42 507h102v-507h-102v507z" />
    <glyph glyph-name="uni0457" unicode="&#x457;" 
d="M129 688h90v-102h-90v102zM-33 688h90v-102h-90v102zM42 507h102v-507h-102v507z" />
    <glyph glyph-name="uni0458" unicode="&#x458;" 
d="M42 507h102v-561q0 -75 -47 -113t-119 -38v96q18 0 30.5 4t20 14.5t10.5 28.5t3 46v523z" />
    <glyph glyph-name="uni0459" unicode="&#x459;" horiz-adv-x="500" 
d="M246 0l-68 324h-2l-68 -324h-108l132 507h90l54 -206h53q32 0 59.5 -11t48 -31t32.5 -47.5t12 -60.5t-12 -60.5t-32.5 -48t-48 -31.5t-59.5 -11h-83zM329 96q21 0 35.5 17t14.5 41t-14.5 41t-35.5 17h-30z" />
    <glyph glyph-name="uni045A" unicode="&#x45a;" horiz-adv-x="524" 
d="M337 96h21q21 0 35.5 17t14.5 41t-14.5 41t-35.5 17h-21v-116zM235 212h-91v-212h-102v507h102v-206h91v206h102v-206h21q32 0 59.5 -11t48 -31t32.5 -47.5t12 -60.5t-12 -60.5t-32.5 -48t-48 -31.5t-59.5 -11h-123v212z" />
    <glyph glyph-name="uni045B" unicode="&#x45b;" horiz-adv-x="389" 
d="M42 557h-60v80h60v75h102v-75h106v-80h-106v-99h2q16 24 38.5 39.5t57.5 15.5q19 0 38 -6.5t34 -21.5t24 -38.5t9 -57.5v-389h-102v351q0 28 -13 44t-37 16q-29 0 -40 -18t-11 -52v-341h-102v557z" />
    <glyph glyph-name="uni045C" unicode="&#x45c;" horiz-adv-x="396" 
d="M220 712h108l-132 -141h-66zM232 253l159 -253h-112l-133 221h-2v-221h-102v507h102v-221h2l133 221h102z" />
    <glyph glyph-name="uni045E" unicode="&#x45e;" horiz-adv-x="352" 
d="M330 712q-2 -41 -15 -69t-34 -45t-48.5 -24.5t-56.5 -7.5t-56.5 7.5t-48.5 24.5t-34.5 45t-14.5 69h51q2 -14 7.5 -27.5t17.5 -24.5t31 -17.5t47 -6.5t47 6.5t31 17.5t17.5 24.5t7.5 27.5h51zM107 507l70 -316h2l69 316h105l-146 -595q-8 -34 -22.5 -56.5t-33.5 -36
t-40.5 -19t-44.5 -5.5h-28v96h23q15 0 26 4t19.5 17.5t15.5 40t16 70.5l-139 484h108z" />
    <glyph glyph-name="uni045F" unicode="&#x45f;" horiz-adv-x="389" 
d="M42 507h102v-417h101v417h102v-507h-102v-70h-101v70h-102v507z" />
    <glyph glyph-name="uni0490" unicode="&#x490;" horiz-adv-x="358" 
d="M352 616h-202v-616h-102v712h202v60h102v-156z" />
    <glyph glyph-name="uni0491" unicode="&#x491;" horiz-adv-x="309" 
d="M306 417h-162v-417h-102v507h162v70h102v-160z" />
    <glyph glyph-name="endash" unicode="&#x2013;" horiz-adv-x="500" 
d="M0 325h500v-96h-500v96z" />
    <glyph glyph-name="emdash" unicode="&#x2014;" horiz-adv-x="1000" 
d="M0 325h1000v-96h-1000v96z" />
    <glyph glyph-name="quoteleft" unicode="&#x2018;" 
d="M144 536h-102v102l102 74v-176z" />
    <glyph glyph-name="quoteright" unicode="&#x2019;" 
d="M42 712h102v-102l-102 -74v176z" />
    <glyph glyph-name="quotesinglbase" unicode="&#x201a;" 
d="M42 102h102v-102l-102 -74v176z" />
    <glyph glyph-name="quotedblleft" unicode="&#x201c;" horiz-adv-x="278" 
d="M120 536h-102v102l102 74v-176zM260 536h-102v102l102 74v-176z" />
    <glyph glyph-name="quotedblright" unicode="&#x201d;" horiz-adv-x="278" 
d="M158 712h102v-102l-102 -74v176zM18 712h102v-102l-102 -74v176z" />
    <glyph glyph-name="quotedblbase" unicode="&#x201e;" horiz-adv-x="278" 
d="M158 102h102v-102l-102 -74v176zM18 102h102v-102l-102 -74v176z" />
    <glyph glyph-name="dagger" unicode="&#x2020;" horiz-adv-x="370" 
d="M140 396h-134v90h134v226h90v-226h134v-90h-134v-601h-90v601z" />
    <glyph glyph-name="daggerdbl" unicode="&#x2021;" horiz-adv-x="370" 
d="M140 712h90v-218h134v-80h-134v-321h134v-80h-134v-218h-90v218h-134v80h134v321h-134v80h134v218z" />
    <glyph glyph-name="bullet" unicode="&#x2022;" horiz-adv-x="500" 
d="M72 356q0 37 14 69.5t38 56.5t56.5 38t69.5 14t69.5 -14t56.5 -38t38 -56.5t14 -69.5t-14 -69.5t-38 -56.5t-56.5 -38t-69.5 -14t-69.5 14t-56.5 38t-38 56.5t-14 69.5z" />
    <glyph glyph-name="ellipsis" unicode="&#x2026;" horiz-adv-x="1000" 
d="M782 102h102v-102h-102v102zM449 102h102v-102h-102v102zM116 102h102v-102h-102v102z" />
    <glyph glyph-name="perthousand" unicode="&#x2030;" horiz-adv-x="537" 
d="M264 712h66l-244 -712h-66zM165 135q0 38 23 60t62 22t62 -22t23 -60v-65q0 -34 -23 -55t-62 -21t-62 21t-23 55v65zM225 80q0 -11 7.5 -18.5t17.5 -7.5t17.5 7.5t7.5 18.5v51q0 11 -7.5 18.5t-17.5 7.5t-17.5 -7.5t-7.5 -18.5v-51zM9 636q0 38 23 60t62 22t62 -22
t23 -60v-65q0 -34 -23 -55t-62 -21t-62 21t-23 55v65zM69 581q0 -11 7.5 -18.5t17.5 -7.5t17.5 7.5t7.5 18.5v51q0 11 -7.5 18.5t-17.5 7.5t-17.5 -7.5t-7.5 -18.5v-51zM358 135q0 38 23 60t62 22t62 -22t23 -60v-65q0 -34 -23 -55t-62 -21t-62 21t-23 55v65zM418 80
q0 -11 7.5 -18.5t17.5 -7.5t17.5 7.5t7.5 18.5v51q0 11 -7.5 18.5t-17.5 7.5t-17.5 -7.5t-7.5 -18.5v-51z" />
    <glyph glyph-name="guilsinglleft" unicode="&#x2039;" horiz-adv-x="241" 
d="M213 377l-101 -100l101 -100v-102l-203 202l203 202v-102z" />
    <glyph glyph-name="guilsinglright" unicode="&#x203a;" horiz-adv-x="241" 
d="M28 177l101 100l-101 100v102l203 -202l-203 -202v102z" />
    <glyph glyph-name="fraction" unicode="&#x2044;" horiz-adv-x="167" 
d="M272 729h60l-437 -746h-60z" />
    <glyph glyph-name="fraction" unicode="&#x2215;" horiz-adv-x="167" 
d="M272 729h60l-437 -746h-60z" />
    <glyph glyph-name="Euro" unicode="&#x20ac;" horiz-adv-x="407" 
d="M144 169q0 -31 13.5 -52t48.5 -21q10 0 21.5 3.5t21 11.5t15.5 22t6 35v4h102v-13q0 -33 -12.5 -63t-34.5 -52.5t-51.5 -36t-63.5 -13.5q-29 0 -59 8t-54 27.5t-39.5 51.5t-15.5 81v392q0 35 12 65t34 52t52.5 34.5t67.5 12.5q35 0 65 -12.5t52 -35t34.5 -54t12.5 -68.5
v-10h-102v4q0 30 -17 52t-46 22q-38 0 -50.5 -23.5t-12.5 -59.5v-75h176v-76h-176v-54h176v-76h-176v-83z" />
    <glyph glyph-name="trademark" unicode="&#x2122;" horiz-adv-x="990" 
d="M805 646h-2l-137 -346h-41l-136 346h-2v-346h-72v412h114l117 -301l117 301h114v-412h-72v346zM166 646h-127v66h326v-66h-127v-346h-72v346z" />
    <glyph glyph-name="minus" unicode="&#x2212;" horiz-adv-x="600" 
d="M47 293h506v-80h-506v80z" />
    <glyph glyph-name="uniFB01" unicode="&#xfb01;" horiz-adv-x="407" 
d="M263 712h102v-102h-102v102zM263 507h102v-507h-102v507zM55 427h-50v80h50v69q0 37 11 62.5t29.5 42t42 24t48.5 7.5h47v-96h-46q-30 0 -30 -35v-74h76v-80h-76v-427h-102v427z" />
    <glyph glyph-name="uniFB02" unicode="&#xfb02;" horiz-adv-x="407" 
d="M263 712h102v-569q0 -29 10.5 -39.5t39.5 -13.5v-96q-35 0 -63.5 5.5t-48 21t-30 43.5t-10.5 72v576zM55 427h-50v80h50v69q0 37 11 62.5t29.5 42t42 24t48.5 7.5h47v-96h-46q-30 0 -30 -35v-74h76v-80h-76v-427h-102v427z" />
    </font>
</defs>
</svg>
